<svg xmlns="http://www.w3.org/2000/svg" xmlns:xlink="http://www.w3.org/1999/xlink" width="25.575" height="25.575" viewBox="0 0 25.575 25.575">
  <defs>
    <linearGradient id="linear-gradient" x1="0.5" x2="0.5" y2="1" gradientUnits="objectBoundingBox">
      <stop offset="0" stop-color="#f9b035"/>
      <stop offset="0.53" stop-color="#f98c4e"/>
      <stop offset="1" stop-color="#f96767"/>
    </linearGradient>
  </defs>
  <g id="ask-q" transform="translate(0.5 0.5)">
    <path id="Exclusion_16" data-name="Exclusion 16" d="M17.619,24.576H6.966C2.8,24.576,0,21.658,0,17.315V7.276C0,2.925,2.8,0,6.966,0H17.619c4.16,0,6.954,2.923,6.954,7.274V17.315C24.574,21.658,21.779,24.576,17.619,24.576Zm-6.432-8.318v2.178h1.989V16.259Zm1.206-9.252a2.865,2.865,0,0,1,.918.148,1.548,1.548,0,0,1,.729.509,1.283,1.283,0,0,1,.27.513,2.432,2.432,0,0,1,.081.639,3.039,3.039,0,0,1-.122.873,2.12,2.12,0,0,1-.481.8,6.533,6.533,0,0,1-.823.752,9.15,9.15,0,0,0-.72.594,2.694,2.694,0,0,0-.571.788,3.494,3.494,0,0,0-.392,1.08,6.852,6.852,0,0,0-.1,1.215h2a8.647,8.647,0,0,1,.036-.878,1.931,1.931,0,0,1,.279-.743,2.414,2.414,0,0,1,.432-.531c.174-.161.364-.329.567-.5a7.136,7.136,0,0,0,.6-.571,5.61,5.61,0,0,0,.931-1.332,3.508,3.508,0,0,0,.365-1.584,3.7,3.7,0,0,0-.212-1.237,3.193,3.193,0,0,0-.625-1.067,3.229,3.229,0,0,0-1.417-.963,5.459,5.459,0,0,0-1.8-.3,4.585,4.585,0,0,0-1.332.2,3.574,3.574,0,0,0-1.188.616,3.264,3.264,0,0,0-.972,1.2,4.478,4.478,0,0,0-.432,1.584h1.98a2.019,2.019,0,0,1,.122-.752,1.388,1.388,0,0,1,.41-.581,1.626,1.626,0,0,1,.653-.36A2.864,2.864,0,0,1,12.393,7.007Z" transform="translate(0.002 -0.002)" stroke="rgba(0,0,0,0)" stroke-width="1" fill="url(#linear-gradient)"/>
  </g>
</svg>
