<svg xmlns="http://www.w3.org/2000/svg" xmlns:xlink="http://www.w3.org/1999/xlink" width="14" height="14" viewBox="0 0 14 14">
  <defs>
    <clipPath id="clip-path">
      <rect id="Rectangle_103" data-name="Rectangle 103" width="14" height="14" transform="translate(0.361 -0.376)" fill="#7a86a1"/>
    </clipPath>
  </defs>
  <g id="column" transform="translate(-0.361 0.376)" clip-path="url(#clip-path)">
    <path id="Path_196" data-name="Path 196" d="M8.35,13.249H6.371A1.218,1.218,0,0,1,5.152,12.03V6.37A1.218,1.218,0,0,1,6.371,5.152H8.35A1.218,1.218,0,0,1,9.568,6.37v5.66A1.218,1.218,0,0,1,8.35,13.249m2.69-1.218V6.37a1.218,1.218,0,0,1,1.219-1.218H13.5A1.218,1.218,0,0,1,14.721,6.37v4.924a1.954,1.954,0,0,1-1.954,1.954h-.507a1.218,1.218,0,0,1-1.219-1.218M2.462,13.249H1.955A1.955,1.955,0,0,1,0,11.294V6.37A1.218,1.218,0,0,1,1.219,5.152H2.462A1.218,1.218,0,0,1,3.68,6.37v5.66a1.218,1.218,0,0,1-1.218,1.218M13.5,3.68H1.219A1.218,1.218,0,0,1,0,2.462V1.954A1.955,1.955,0,0,1,1.955,0H12.767a1.954,1.954,0,0,1,1.954,1.954v.508A1.218,1.218,0,0,1,13.5,3.68" transform="translate(0)" fill="#7a86a1"/>
  </g>
</svg>
