<svg width="48" height="48" xmlns="http://www.w3.org/2000/svg" xmlns:xlink="http://www.w3.org/1999/xlink" xml:space="preserve" overflow="hidden"><g transform="translate(-691 -186)"><path d="M735.308 192.462 694.692 192.462C693.677 192.462 692.846 193.292 692.846 194.308L692.846 218.308C692.846 219.323 693.677 220.154 694.692 220.154L709.646 220.154C710.569 225.415 715.092 229.385 720.538 229.385 725.985 229.385 730.6 225.415 731.431 220.154L735.308 220.154C736.323 220.154 737.154 219.323 737.154 218.308L737.154 194.308C737.154 193.292 736.323 192.462 735.308 192.462ZM727.369 222.554 724.785 225.138 720.538 220.892 716.292 225.138 713.708 222.554 717.954 218.308 713.708 214.062 716.292 211.477 720.538 215.723 724.785 211.477 727.369 214.062 723.123 218.308 727.369 222.554ZM733.462 216.462 731.431 216.462C730.508 211.2 725.985 207.231 720.538 207.231 715.092 207.231 710.477 211.2 709.646 216.462L696.538 216.462 696.538 196.154 733.462 196.154 733.462 216.462Z" stroke="#FF0000" stroke-width="0.923077" fill="#FF6161"/></g></svg>