<svg xmlns="http://www.w3.org/2000/svg" width="15.008" height="14.995" viewBox="0 0 15.008 14.995">
  <path id="export" d="M1306.919,899.219v3.164a.594.594,0,0,0,.567.617.588.588,0,0,0,.583-.539l.005-.079v-3.164h3.587a3.485,3.485,0,0,0,3.339-3.456v-4.147a3.507,3.507,0,0,0-3.175-3.61h-8.5a3.473,3.473,0,0,0-3.332,3.456V895.6a3.509,3.509,0,0,0,3.168,3.611l.156,0h3.6v-5.051l-1.2,1.305a.547.547,0,0,1-.8.018l-.017-.018a.685.685,0,0,1-.06-.81l.06-.079,2.184-2.379a.54.54,0,0,1,.762-.056l.056.056,2.184,2.379a.668.668,0,0,1,0,.889.546.546,0,0,1-.75.061l-.064-.061-1.193-1.3v5.051Z" transform="translate(-1299.993 -888.005)" fill="#7a86a1"/>
</svg>
