<svg id="filter" xmlns="http://www.w3.org/2000/svg" width="14.709" height="13.075" viewBox="0 0 14.709 13.075">
  <path id="Filter-2" data-name="Filter" d="M9.651,10.59a2.53,2.53,0,1,1,2.529,2.485A2.508,2.508,0,0,1,9.651,10.59ZM1.109,11.709a1.09,1.09,0,1,1,0-2.179H5.945a1.09,1.09,0,1,1,0,2.179ZM0,2.485A2.507,2.507,0,0,1,2.529,0,2.507,2.507,0,0,1,5.058,2.485,2.507,2.507,0,0,1,2.529,4.97,2.508,2.508,0,0,1,0,2.485ZM8.765,3.574a1.089,1.089,0,1,1,0-2.178H13.6a1.089,1.089,0,1,1,0,2.178Z" transform="translate(0 0)" fill="#7a86a1"/>
</svg>
