<svg width="14.709" height="13.075" viewBox="0 0 14.709 13.075" xmlns="http://www.w3.org/2000/svg" xmlns:xlink="http://www.w3.org/1999/xlink" id="filter" overflow="hidden"><path d="M9.651 10.59C9.62615 9.19294 10.7385 8.04025 12.1356 8.0154 13.5327 7.99055 14.6853 9.10294 14.7102 10.5 14.7351 11.8971 13.6227 13.0497 12.2256 13.0746 12.2104 13.0749 12.1952 13.075 12.18 13.075 10.7956 13.0867 9.66365 11.9744 9.651 10.59ZM1.109 11.709C0.507286 11.7272 0.00472028 11.2542-0.0135114 10.6525-0.0317431 10.0508 0.441263 9.54823 1.04298 9.53 1.06498 9.52933 1.087 9.52933 1.109 9.53L5.945 9.53C6.54671 9.51177 7.04928 9.98477 7.06751 10.5865 7.08574 11.1882 6.61274 11.6908 6.01102 11.709 5.98902 11.7097 5.967 11.7097 5.945 11.709ZM0 2.485C0.0120965 1.10047 1.14428-0.0120983 2.52881-1.79902e-06 2.52887-1.23679e-06 2.52894-6.72087e-07 2.529-1.04904e-07 3.91352-0.0122032 5.0458 1.10028 5.058 2.48481 5.058 2.48487 5.058 2.48494 5.058 2.485 5.0459 3.86952 3.91372 4.9821 2.52919 4.97 2.52913 4.97 2.52906 4.97 2.529 4.97 1.14462 4.98165 0.0126471 3.86937 4.3869e-08 2.485ZM8.765 3.574C8.16356 3.574 7.676 3.08644 7.676 2.485 7.676 1.88356 8.16356 1.396 8.765 1.396L13.6 1.396C14.2014 1.396 14.689 1.88356 14.689 2.485 14.689 3.08644 14.2014 3.574 13.6 3.574Z" id="Filter-2" fill="#FFFFFF"/></svg>