<svg width="800" height="800" viewBox="0 0 52 52" xmlns="http://www.w3.org/2000/svg" xmlns:xlink="http://www.w3.org/1999/xlink" overflow="hidden"><path d="M44.5 21C47.5376 21.0006 49.9995 23.4635 49.999 26.501 49.9984 29.5386 47.5355 32.0006 44.498 32 42.4313 31.9996 40.5394 30.8408 39.6 29L38.69 29C33.3 29.06 31.4 30.7 28.38 36.34L28.21 36.67 28.01 37.05C26.21 40.42 25.19 41.95 23.35 43.57 20.76 45.84 17.42 47 13 47L12.4 47C11.0193 49.7056 7.70665 50.7797 5.00102 49.399 2.29539 48.0183 1.22133 44.7056 2.60204 42 3.98275 39.2944 7.29539 38.2203 10.001 39.601 11.0335 40.1279 11.8731 40.9675 12.4 42L13.31 42C18.8 41.94 20.67 40.24 23.79 34.33L23.79 34.33 24 34C24.8525 32.2256 25.8953 30.5491 27.11 29L12.4 29C11.0193 31.7056 7.70665 32.7797 5.00102 31.399 2.29539 30.0183 1.22133 26.7056 2.60204 24 3.98275 21.2944 7.29539 20.2203 10.001 21.601 11.0335 22.1279 11.8731 22.9675 12.4 24L39.6 24C40.5075 22.2316 42.2942 21.0863 44.28 21ZM44.5 2C47.5376 2.00056 49.9995 4.46345 49.999 7.50102 49.9984 10.5386 47.5355 13.0006 44.498 13 42.4313 12.9996 40.5394 11.8408 39.6 10L12.4 10C11.0193 12.7056 7.70665 13.7797 5.00102 12.399 2.29539 11.0183 1.22133 7.70563 2.60204 5 3.98275 2.29437 7.29539 1.22031 10.001 2.60102 11.0335 3.1279 11.8731 3.96752 12.4 5L39.6 5C40.5397 3.15856 42.4327 1.99962 44.5 2Z" fill="#7F7F7F"/></svg>