<svg xmlns="http://www.w3.org/2000/svg" xmlns:xlink="http://www.w3.org/1999/xlink" width="25" height="25" viewBox="0 0 25 25">
  <defs>
    <linearGradient id="linear-gradient" x1="0.5" x2="0.5" y2="1" gradientUnits="objectBoundingBox">
      <stop offset="0" stop-color="#f9b035"/>
      <stop offset="0.53" stop-color="#f98c4e"/>
      <stop offset="1" stop-color="#f96767"/>
    </linearGradient>
  </defs>
  <g id="send-msg" transform="translate(9.87 0.87)">
    <path id="Chat" d="M12.5,25a12.444,12.444,0,0,1-6.15-1.627,2.748,2.748,0,0,0-1.384-.53,1.517,1.517,0,0,0-.478.079l-2.526.752a.942.942,0,0,1-.283.045.775.775,0,0,1-.625-.3A.809.809,0,0,1,.937,22.7l.838-2.8a1.307,1.307,0,0,0-.088-1.126A13.208,13.208,0,0,1,0,12.519,12.7,12.7,0,0,1,3.539,3.79,12.362,12.362,0,0,1,12.525,0a12.332,12.332,0,0,1,8.9,3.743,12.572,12.572,0,0,1,2.624,3.978A12.362,12.362,0,0,1,25,12.481,12.673,12.673,0,0,1,23.919,17.7a12,12,0,0,1-2.844,3.941A12.806,12.806,0,0,1,12.5,25Zm5.738-14.071a1.6,1.6,0,1,0,1.6,1.6A1.6,1.6,0,0,0,18.238,10.929Zm-5.786,0a1.585,1.585,0,0,0-1.576,1.59,1.6,1.6,0,1,0,1.6-1.59h-.024Zm-5.738,0a1.6,1.6,0,1,0,1.6,1.6A1.6,1.6,0,0,0,6.713,10.929Z" transform="translate(-9.87 -0.87)" fill="url(#linear-gradient)"/>
  </g>
</svg>
