<svg xmlns="http://www.w3.org/2000/svg" xmlns:xlink="http://www.w3.org/1999/xlink" width="39.387" height="39.387" viewBox="0 0 39.387 39.387">
  <defs>
    <linearGradient id="linear-gradient" x1="0.5" x2="0.5" y2="1" gradientUnits="objectBoundingBox">
      <stop offset="0" stop-color="#f9b035"/>
      <stop offset="0.53" stop-color="#f98c4e"/>
      <stop offset="1" stop-color="#f96767"/>
    </linearGradient>
  </defs>
  <path id="faq" d="M19.693,0A19.693,19.693,0,1,0,39.387,19.693,19.693,19.693,0,0,0,19.693,0Zm0,31.181a1.641,1.641,0,1,1,1.641-1.641A1.641,1.641,0,0,1,19.693,31.181ZM22.2,20.842a1.539,1.539,0,0,0-.865,1.444v.689a1.641,1.641,0,1,1-3.282,0v-.689A4.785,4.785,0,0,1,20.947,17.8a3.282,3.282,0,0,0,1.969-3.643,3.322,3.322,0,0,0-2.626-2.626,3.282,3.282,0,0,0-3.88,3.235,1.641,1.641,0,0,1-3.282,0,6.564,6.564,0,1,1,9.07,6.072Z" fill="url(#linear-gradient)"/>
</svg>
