<svg xmlns="http://www.w3.org/2000/svg" xmlns:xlink="http://www.w3.org/1999/xlink" width="54.179" height="54.178" viewBox="0 0 54.179 54.178">
  <defs>
    <linearGradient id="linear-gradient" x1="0.5" x2="0.5" y2="1" gradientUnits="objectBoundingBox">
      <stop offset="0" stop-color="#f9b035"/>
      <stop offset="0.53" stop-color="#f98c4e"/>
      <stop offset="1" stop-color="#f96767"/>
    </linearGradient>
  </defs>
  <g id="raise-ticket" transform="translate(0.001)">
    <path id="Path_190" data-name="Path 190" d="M28.974,28.034,27.385,39.121a4.624,4.624,0,0,1-1.327,2.709l-2.935,2.934a4.625,4.625,0,0,0-1.354,3.278v4.4a1.806,1.806,0,0,1-1.806,1.806H6.418a1.806,1.806,0,0,1-1.806-1.806V47.644a5.073,5.073,0,0,0-.849-2.8L1.849,41.974A5.074,5.074,0,0,1,1,39.174V20.981a2.815,2.815,0,0,1,2.564-2.855,2.709,2.709,0,0,1,2.853,2.709V15.562a2.816,2.816,0,0,1,2.564-2.853,2.709,2.709,0,0,1,2.853,2.709V12.853A2.816,2.816,0,0,1,14.4,10a2.709,2.709,0,0,1,2.853,2.709v2.709a2.709,2.709,0,0,1,2.853-2.709,2.816,2.816,0,0,1,2.564,2.856V33.928a1.671,1.671,0,0,0,.19-.5l1.4-6.167a2.382,2.382,0,0,1,2.33-1.914,2.149,2.149,0,0,1,.479.045,2.387,2.387,0,0,1,1.905,2.638Z" transform="translate(-0.097 -0.97)" fill="url(#linear-gradient)"/>
    <path id="Path_191" data-name="Path 191" d="M56.089,2.806V19.059a1.811,1.811,0,0,1-1.806,1.806H47.962l-7.368,5.219a1.053,1.053,0,0,1-1.661-.867V20.865H30.806A1.811,1.811,0,0,1,29,19.059V2.806A1.811,1.811,0,0,1,30.806,1H54.283a1.811,1.811,0,0,1,1.806,1.806Z" transform="translate(-2.814 -0.097)" fill="url(#linear-gradient)"/>
    <g id="Group_2526" data-name="Group 2526" transform="translate(-0.001)">
      <path id="Path_192" data-name="Path 192" d="M2.914,45.249a4.154,4.154,0,0,1,.7,2.3v4.795a2.709,2.709,0,0,0,2.709,2.709H19.865a2.709,2.709,0,0,0,2.709-2.709v-4.4a3.7,3.7,0,0,1,1.09-2.639L26.6,42.372a5.545,5.545,0,0,0,1.583-3.219l1.589-11.088v-.018a3.3,3.3,0,0,0-2.605-3.628,3.033,3.033,0,0,0-.673-.069,3.292,3.292,0,0,0-3.016,1.987V15.468a3.7,3.7,0,0,0-3.426-3.759,3.636,3.636,0,0,0-2.015.493A3.576,3.576,0,0,0,16.944,10a3.612,3.612,0,0,0-2.692-.993,3.67,3.67,0,0,0-3.379,3.21,3.671,3.671,0,0,0-2.039-.507,3.7,3.7,0,0,0-3.417,3.759V17.61a3.643,3.643,0,0,0-2-.483A3.7,3.7,0,0,0,0,20.886V39.08a5.96,5.96,0,0,0,1,3.3ZM1.806,20.886a1.915,1.915,0,0,1,1.7-1.953H3.6a1.8,1.8,0,0,1,1.819,1.806v7.224a.9.9,0,1,0,1.806,0V15.468a1.915,1.915,0,0,1,1.7-1.953,1.837,1.837,0,0,1,1.354.5,1.791,1.791,0,0,1,.554,1.306V27.962a.9.9,0,1,0,1.806,0v-15.2a1.915,1.915,0,0,1,1.7-1.953,1.806,1.806,0,0,1,1.909,1.806v15.35a.9.9,0,0,0,1.806,0V15.321a1.806,1.806,0,0,1,1.9-1.806,1.917,1.917,0,0,1,1.716,1.953V33.54a.825.825,0,0,1-.325.24L16.5,35.6A4.2,4.2,0,0,0,14,38.2l-1.009,3.025a.9.9,0,1,0,1.716.571l1.009-3.022a2.4,2.4,0,0,1,1.428-1.484l4.85-1.818a2.624,2.624,0,0,0,1.345-1.155l.022-.025c.005-.009.008-.019.014-.027l.006-.01v-.009a2.564,2.564,0,0,0,.271-.706l1.4-6.19a1.48,1.48,0,0,1,1.443-1.19,1.322,1.322,0,0,1,.3.028,1.493,1.493,0,0,1,1.186,1.633l-1.589,11.1a3.759,3.759,0,0,1-1.07,2.181l-2.935,2.935a5.5,5.5,0,0,0-1.619,3.918v4.4a.9.9,0,0,1-.9.9H6.321a.9.9,0,0,1-.9-.9V47.548a5.96,5.96,0,0,0-1-3.3L2.5,41.379a4.154,4.154,0,0,1-.7-2.3Z" transform="translate(0.001 -0.873)" fill="#fff"/>
      <path id="Path_193" data-name="Path 193" d="M30.709,21.671h7.224v3.449a1.959,1.959,0,0,0,1.058,1.745,1.937,1.937,0,0,0,.9.219,1.963,1.963,0,0,0,1.131-.361l7.133-5.057h6.034a2.709,2.709,0,0,0,2.709-2.709V9.933a.9.9,0,1,0-1.806,0v9.03a.9.9,0,0,1-.9.9H47.865a.9.9,0,0,0-.522.166l-7.366,5.217a.139.139,0,0,1-.154.014.147.147,0,0,1-.084-.142V20.768a.9.9,0,0,0-.9-.9H30.709a.9.9,0,0,1-.9-.9V2.709a.9.9,0,0,1,.9-.9H54.186a.9.9,0,0,1,.9.9V6.321a.9.9,0,1,0,1.806,0V2.709A2.709,2.709,0,0,0,54.186,0H30.709A2.709,2.709,0,0,0,28,2.709V18.962a2.709,2.709,0,0,0,2.709,2.709Z" transform="translate(-2.716)" fill="url(#linear-gradient)"/>
      <path id="Path_194" data-name="Path 194" d="M51.515,12.11A3.612,3.612,0,1,0,47,8.612a.9.9,0,0,0,1.806,0,1.806,1.806,0,1,1,1.806,1.806.9.9,0,0,0-.9.9v.9a.9.9,0,0,0,1.806,0Z" transform="translate(-4.56 -0.485)" fill="#fff"/>
      <path id="Path_195" data-name="Path 195" d="M50.9,15.954a.939.939,0,0,0-.9.945.9.9,0,0,0,1.806,0v-.083a.868.868,0,0,0-.9-.861Z" transform="translate(-4.851 -1.548)" fill="#fff"/>
      <path id="Path_196" data-name="Path 196" d="M42.933,6H33.9a.9.9,0,0,0,0,1.806h9.03a.9.9,0,0,0,0-1.806Z" transform="translate(-3.201 -0.582)" fill="#fff"/>
      <path id="Path_197" data-name="Path 197" d="M43.836,11.9a.9.9,0,0,0-.9-.9H33.9a.9.9,0,0,0,0,1.806h9.03A.9.9,0,0,0,43.836,11.9Z" transform="translate(-3.201 -1.067)" fill="#fff"/>
      <path id="Path_198" data-name="Path 198" d="M33.9,16a.9.9,0,0,0,0,1.806h4.515a.9.9,0,0,0,0-1.806Z" transform="translate(-3.201 -1.553)" fill="#fff"/>
    </g>
  </g>
</svg>
