<svg id="bill" xmlns="http://www.w3.org/2000/svg" width="18.59" height="20.014" viewBox="0 0 18.59 20.014">
  <path id="Path_180" data-name="Path 180" d="M19.75,1.25H4.25a1.5,1.5,0,0,0-1.5,1.5V19.38a1.75,1.75,0,0,0,.71,1.41A1.71,1.71,0,0,0,5,21.06a6,6,0,0,0,1-.38,3.42,3.42,0,0,1,1.8-.44,3.45,3.45,0,0,1,1.8.44,5,5,0,0,0,2.45.58,5,5,0,0,0,2.45-.58,3.39,3.39,0,0,1,1.8-.44,3.45,3.45,0,0,1,1.8.44,7,7,0,0,0,1,.39,1.75,1.75,0,0,0,2.24-1.69V2.75a1.5,1.5,0,0,0-1.59-1.5Z" transform="translate(-2.75 -1.247)" fill="#f9b035"/>
  <g id="Group_2454" data-name="Group 2454" transform="translate(4 3.503)">
    <path id="Path_181" data-name="Path 181" d="M16.5,6.25h-9a.75.75,0,1,1,0-1.5h9a.75.75,0,0,1,0,1.5Z" transform="translate(-6.75 -4.75)" fill="#734cc5"/>
    <path id="Path_182" data-name="Path 182" d="M16.5,10.25h-9a.75.75,0,0,1,0-1.5h9a.75.75,0,0,1,0,1.5Z" transform="translate(-6.75 -4.75)" fill="#734cc5"/>
    <path id="Path_184" data-name="Path 184" d="M12.262,14.25H7.174c-.234,0-.424-.336-.424-.75s.19-.75.424-.75h5.088c.234,0,.424.336.424.75S12.5,14.25,12.262,14.25Z" transform="translate(-6.75 -4.75)" fill="#734cc5"/>
  </g>
</svg>
