<svg id="sample-download" xmlns="http://www.w3.org/2000/svg" width="12.804" height="15.063" viewBox="0 0 12.804 15.063">
  <path id="Paper_Download" data-name="Paper Download" d="M3.52,15.063A3.538,3.538,0,0,1,0,11.516V3.4A3.384,3.384,0,0,1,3.363,0H7.345a.349.349,0,0,1,.343.346V2.772a2.516,2.516,0,0,0,2.491,2.515c.315,0,.6,0,.843,0l.507,0,.392,0c.172,0,.366,0,.54,0a.337.337,0,0,1,.343.339v6.055a3.373,3.373,0,0,1-3.356,3.382Zm.082-7a.569.569,0,0,0,0,.8l2.132,2.162a.588.588,0,0,0,.179.12.524.524,0,0,0,.216.045.485.485,0,0,0,.209-.045.588.588,0,0,0,.179-.12l2.14-2.162a.562.562,0,0,0-.007-.8.549.549,0,0,0-.783,0L6.681,9.271V5.641a.553.553,0,0,0-.552-.565.563.563,0,0,0-.559.565V9.271L4.385,8.066a.549.549,0,0,0-.783,0Zm6.673-3.879a1.519,1.519,0,0,1-1.5-1.519V.683A.355.355,0,0,1,9.383.431l3,3.153a.359.359,0,0,1-.256.608h-.485C11.161,4.193,10.662,4.191,10.275,4.187Z" fill="#7a86a1"/>
</svg>
