<svg xmlns="http://www.w3.org/2000/svg" width="11" height="11" viewBox="0 0 11 11">
  <path id="Fill_4" data-name="Fill 4" d="M10.555,3.9,4,10.483A1.8,1.8,0,0,1,2.746,11H.458a.463.463,0,0,1-.331-.137A.457.457,0,0,1,0,10.532L.058,8.22A1.759,1.759,0,0,1,.574,7.01L5.219,2.356a.211.211,0,0,1,.292,0L7.14,3.979a.615.615,0,0,0,.428.176.643.643,0,0,0,.643-.644.661.661,0,0,0-.175-.449c-.029-.039-1.58-1.583-1.58-1.583a.26.26,0,0,1,0-.361L7.108.454a1.538,1.538,0,0,1,2.181,0l1.266,1.268a1.551,1.551,0,0,1,0,2.176" fill="#6149cd"/>
</svg>
