<svg xmlns="http://www.w3.org/2000/svg" width="14.984" height="11.96" viewBox="0 0 14.984 11.96">
  <g id="prev" transform="translate(-1155.017 -1544.025)">
    <path id="next" d="M1161.676,1555.793a.648.648,0,0,0,.059-.869l-.059-.068-4.329-4.187h11.974a.661.661,0,0,0,.083-1.319l-.083,0H1155.7a.681.681,0,0,0-.629.409.648.648,0,0,0,.088.651l.061.066,5.495,5.32a.7.7,0,0,0,.954.008l.009-.008Zm-3.1-7.643.068-.057,3.035-2.936a.649.649,0,0,0,0-.936.7.7,0,0,0-.895-.061l-.071.06-3.03,2.933a.651.651,0,0,0,0,.937.7.7,0,0,0,.893.062Z" fill="#c0bdcc"/>
  </g>
</svg>
