<svg xmlns="http://www.w3.org/2000/svg" width="14.986" height="15" viewBox="0 0 14.986 15">
  <path id="role" d="M1492.982,954a2.87,2.87,0,0,1-2.847-2.885l-.054-3.875a.158.158,0,0,1,.068-.129.1.1,0,0,1,.053-.015.154.154,0,0,1,.089.031,12.786,12.786,0,0,0,5.245,1.974.565.565,0,0,0,.616-.411,1.367,1.367,0,0,1,1.334-1.033h.023a1.367,1.367,0,0,1,1.334,1.033.565.565,0,0,0,.617.411,12.788,12.788,0,0,0,5.245-1.974l.03-.016a.138.138,0,0,1,.06-.014.1.1,0,0,1,.053.014.158.158,0,0,1,.067.129l-.06,3.874a2.87,2.87,0,0,1-2.846,2.886Zm3.951-4.686v.98a.566.566,0,0,0,.562.569.559.559,0,0,0,.563-.556v-.994a.567.567,0,0,0-.563-.57A.573.573,0,0,0,1496.933,949.314Zm2.7-1.559a2.472,2.472,0,0,0-2.132-1.237,2.515,2.515,0,0,0-2.153,1.232.245.245,0,0,1-.207.125.21.21,0,0,1-.042,0,11.624,11.624,0,0,1-4.214-1.7l-.72-.5a.216.216,0,0,1-.1-.182c-.022-.38-.06-1.621-.06-1.633a2.878,2.878,0,0,1,2.856-2.893h1.477a2.232,2.232,0,0,1,2.186-1.96h1.934a2.231,2.231,0,0,1,2.189,1.96h1.484a2.878,2.878,0,0,1,2.86,2.893c0,.007-.044.685-.06,1.615a.247.247,0,0,1-.1.192c-.353.26-.688.485-.72.5a11.48,11.48,0,0,1-4.231,1.716.214.214,0,0,1-.043,0,.243.243,0,0,1-.208-.127Zm-4.155-6.8h4.033a1.085,1.085,0,0,0-1.049-.82h-1.935A1.085,1.085,0,0,0,1495.476,940.96Z" transform="translate(-1490.006 -939)" fill="#7a86a1"/>
</svg>
