<svg xmlns="http://www.w3.org/2000/svg" width="14.973" height="14" viewBox="0 0 14.973 14">
  <path id="team" d="M1491.008,912.6c0-1.9,2.535-2.38,5.5-2.38,2.983,0,5.5.493,5.5,2.4s-2.534,2.379-5.5,2.379C1493.527,915,1491.008,914.507,1491.008,912.6Zm12.452.37a3.892,3.892,0,0,0-2.3-3.832.041.041,0,0,1-.025-.042.031.031,0,0,1,.028-.022,13.269,13.269,0,0,1,2.806.248,2.378,2.378,0,0,1,1.843,1.142,1.7,1.7,0,0,1,0,1.46c-.4.873-1.682,1.155-2.18,1.227h-.023a.159.159,0,0,1-.155-.163A.181.181,0,0,1,1503.46,912.972Zm-10.59-8.268a3.663,3.663,0,0,1,3.621-3.7h.019a3.661,3.661,0,0,1,3.641,3.684c0,.007,0,.014,0,.021a3.663,3.663,0,0,1-3.622,3.7h-.019a3.661,3.661,0,0,1-3.64-3.685C1492.87,904.717,1492.87,904.711,1492.87,904.7Zm8.409,3.157a2.937,2.937,0,0,1-.419-.04.139.139,0,0,1-.091-.213,5.162,5.162,0,0,0-.075-5.786.088.088,0,0,1-.013-.1.11.11,0,0,1,.071-.044,3.036,3.036,0,0,1,.614-.061,3.086,3.086,0,0,1,3.062,3.11,3.264,3.264,0,0,1-.1.838,3.042,3.042,0,0,1-2.965,2.292Z" transform="translate(-1491.008 -901)" fill="#7a86a1"/>
</svg>
