<svg xmlns="http://www.w3.org/2000/svg" width="12.003" height="13.006" viewBox="0 0 12.003 13.006">
  <path id="upload" d="M1614.677,4105a2.749,2.749,0,0,1-2.671-2.7v-3.241a2.76,2.76,0,0,1,2.539-2.816h3v3.818a.474.474,0,0,0,.448.5.469.469,0,0,0,.472-.428l0-.067v-3.818h2.869a2.749,2.749,0,0,1,2.671,2.7v3.234a2.762,2.762,0,0,1-2.539,2.825h-.125Zm2.869-8.763v-2.591l-.955,1a.45.45,0,0,1-.654,0,.493.493,0,0,1-.051-.626l.045-.056,1.746-1.828a.446.446,0,0,1,.33-.144.44.44,0,0,1,.27.093l.054.051,1.747,1.828a.5.5,0,0,1-.011.682.449.449,0,0,1-.589.047l-.051-.047-.954-1v2.591Z" transform="translate(-1612.006 -4091.991)" fill="#7a86a1"/>
</svg>
