<svg xmlns="http://www.w3.org/2000/svg" width="19.879" height="17.876" viewBox="0 0 19.879 17.876">
  <path id="wallet-icon" d="M1553.42,1023.875h-8.969a5.606,5.606,0,0,1-4.009-1.4,5.279,5.279,0,0,1-1.439-3.9v-7.265a5.279,5.279,0,0,1,1.439-3.9,5.606,5.606,0,0,1,4.009-1.4h8.97a5.583,5.583,0,0,1,4.009,1.406,5.347,5.347,0,0,1,1.438,3.934h-4.2v.034a3.56,3.56,0,0,0-2.5,1.009,3.372,3.372,0,0,0-1.036,2.43,3.491,3.491,0,0,0,3.532,3.44h4.2v.309a5.278,5.278,0,0,1-1.439,3.9A5.6,5.6,0,0,1,1553.42,1023.875Zm-9.711-14a.751.751,0,0,0-.759.73.76.76,0,0,0,.759.748h5.607a.739.739,0,1,0,0-1.478h-5.607Zm14.417,6.913h-3.411a2.085,2.085,0,0,1-2.045-1.582,1.96,1.96,0,0,1,.43-1.639,2.075,2.075,0,0,1,1.565-.734h3.461a.733.733,0,0,1,.742.721v2.511a.745.745,0,0,1-.742.721Zm-3.32-2.8a.752.752,0,0,0-.526.211.726.726,0,0,0-.224.52.76.76,0,0,0,.76.748h.327a.739.739,0,1,0,0-1.478h-.338Z" transform="translate(-1538.997 -1006.006)" fill="#f9b035"/>
</svg>
