<svg xmlns="http://www.w3.org/2000/svg" width="16.004" height="17.001" viewBox="0 0 16.004 17.001">
  <path id="contacts" d="M21033.2,2108h-8v-17h8a1.649,1.649,0,0,1,1.6,1.69v13.622A1.649,1.649,0,0,1,21033.2,2108Zm-3.2-12.236a1.482,1.482,0,0,0-.74.2l-1.516.876a1.485,1.485,0,0,0-.734,1.278v1.764a1.485,1.485,0,0,0,.734,1.278l1.516.876a1.487,1.487,0,0,0,.707.2h.068a1.46,1.46,0,0,0,.7-.2l1.52-.876a1.482,1.482,0,0,0,.734-1.278v-1.764a1.482,1.482,0,0,0-.734-1.278l-1.52-.876A1.47,1.47,0,0,0,21030,2095.768Zm-5.6,12.236h-.4a2,2,0,0,1-2-2v-13a2,2,0,0,1,2-2h.4v17Zm5.6-8.057a.945.945,0,1,1,.939-.945A.946.946,0,0,1,21030,2099.947Zm7-.443h-.4a1,1,0,0,1-1-1v-1.4a1,1,0,0,1,1-1h.4a1,1,0,0,1,1,1v1.4A1,1,0,0,1,21037,2099.5Zm0-4.25h-.4a1,1,0,0,1-1-1v-1.4a1,1,0,0,1,1-1h.4a1,1,0,0,1,1,1v1.4A1,1,0,0,1,21037,2095.253Z" transform="translate(-21022 -2091.003)" fill="#bdc3d0"/>
</svg>
