<svg xmlns="http://www.w3.org/2000/svg" width="18.423" height="15.073" viewBox="0 0 18.423 15.073">
  <path id="org-settings-s" d="M16.748,13.4h.837a.837.837,0,0,1,0,1.675H.837a.837.837,0,0,1,0-1.675h.837V.837A.838.838,0,0,1,2.512,0h8.374a.838.838,0,0,1,.837.837V13.4H13.4V5.786a.763.763,0,0,1,.762-.762h1.907a.681.681,0,0,1,.681.681ZM5.024,7.537h0a.838.838,0,0,0,.837.837H7.537a.837.837,0,0,0,0-1.675H5.862a.838.838,0,0,0-.837.837m0-3.35h0a.838.838,0,0,0,.837.837H7.537a.837.837,0,0,0,0-1.675H5.862a.838.838,0,0,0-.837.837" fill="#6149cd"/>
</svg>
