<svg xmlns="http://www.w3.org/2000/svg" width="14.723" height="13.497" viewBox="0 0 14.723 13.497">
  <g id="template" transform="translate(-10 -13.333)">
    <path id="Path_1972" data-name="Path 1972" d="M24.723,15.787V14.56A1.231,1.231,0,0,0,23.5,13.333H11.227A1.231,1.231,0,0,0,10,14.56v1.227Z" fill="#bdc3d0"/>
    <path id="Path_1973" data-name="Path 1973" d="M26.667,50h1.84v3.681h-1.84Z" transform="translate(-13.6 -29.919)" fill="#bdc3d0"/>
    <path id="Path_1974" data-name="Path 1974" d="M10,33.333v8.589a1.231,1.231,0,0,0,1.227,1.227H23.5a1.231,1.231,0,0,0,1.227-1.227V33.333Zm6.135,7.975H11.84V35.173h4.294Zm1.84-6.135h3.681V36.4H17.975Zm2.454,6.135H17.975V40.081h2.454Zm2.454-2.454H17.976V37.627h4.908Z" transform="translate(0 -16.319)" fill="#bdc3d0"/>
  </g>
</svg>
