<svg id="account" xmlns="http://www.w3.org/2000/svg" xmlns:xlink="http://www.w3.org/1999/xlink" width="16.453" height="15.146" viewBox="0 0 16.453 15.146">
  <defs>
    <clipPath id="clip-path">
      <rect id="Rectangle_99" data-name="Rectangle 99" width="16.453" height="15.146" fill="#bdc3d0"/>
    </clipPath>
  </defs>
  <g id="Group_2632" data-name="Group 2632" transform="translate(0 0)" clip-path="url(#clip-path)">
    <path id="Path_222" data-name="Path 222" d="M13.566,1.675,16,5.9a3.349,3.349,0,0,1,0,3.35l-2.437,4.223a3.351,3.351,0,0,1-2.9,1.675H5.788a3.351,3.351,0,0,1-2.9-1.675L.449,9.248a3.349,3.349,0,0,1,0-3.35L2.887,1.675A3.351,3.351,0,0,1,5.788,0h4.876a3.351,3.351,0,0,1,2.9,1.675M5.948,5.217l3.18,5.508A.795.795,0,0,0,10.5,9.929L7.325,4.422a.795.795,0,0,0-1.377.795" transform="translate(0 0)" fill="#bdc3d0"/>
  </g>
</svg>
