<svg xmlns="http://www.w3.org/2000/svg" xmlns:xlink="http://www.w3.org/1999/xlink" width="46.186" height="46.185" viewBox="0 0 46.186 46.185">
  <defs>
    <linearGradient id="linear-gradient" x1="0.5" y1="1" x2="0.5" gradientUnits="objectBoundingBox">
      <stop offset="0" stop-color="#f9b035"/>
      <stop offset="0.53" stop-color="#f98c4e"/>
      <stop offset="1" stop-color="#f96767"/>
    </linearGradient>
  </defs>
  <path id="api" d="M39.211,16.882a17.833,17.833,0,0,1,3.432,1.424L45.3,16.953,48.155,15.5l2.268,2.267,2.267,2.267-1.456,2.857-1.352,2.654a17.85,17.85,0,0,1,1.424,3.434l2.831.92,3.05.991V37.3l-3.05.991-2.831.92a17.845,17.845,0,0,1-1.424,3.432L51.235,45.3l1.456,2.857-2.267,2.268L48.155,52.69,45.3,51.234l-2.654-1.352a17.85,17.85,0,0,1-3.434,1.424l-.92,2.831-.991,3.05H30.887l-.991-3.05-.92-2.831a17.839,17.839,0,0,1-3.432-1.424l-2.655,1.353L20.032,52.69l-2.267-2.267L15.5,48.155,16.953,45.3l1.352-2.654a17.848,17.848,0,0,1-1.424-3.434l-2.831-.92L11,37.3V30.887l3.05-.991,2.83-.919A17.835,17.835,0,0,1,18.3,25.542l-1.352-2.653L15.5,20.032l2.267-2.267L20.032,15.5l2.857,1.456,2.654,1.352a17.847,17.847,0,0,1,3.433-1.423l.92-2.831L30.887,11H37.3l.991,3.05.92,2.831Zm-5.117,5.532a11.68,11.68,0,1,0,11.68,11.68,11.68,11.68,0,0,0-11.68-11.68Zm-5.175,7.354-3.993,3.993a.471.471,0,0,0,0,.666l3.993,3.993a.471.471,0,0,0,.666-.666l-3.66-3.66,3.66-3.66a.471.471,0,0,0-.666-.666Zm9.683.666,3.66,3.66-3.66,3.66a.471.471,0,0,0,.666.666l3.993-3.993a.471.471,0,0,0,0-.666l-3.993-3.993a.471.471,0,0,0-.666.666ZM35.2,28.159,32.082,39.785a.471.471,0,1,0,.909.243L36.106,28.4a.471.471,0,0,0-.909-.243Zm-1.1-6.688A12.622,12.622,0,1,0,46.716,34.094,12.622,12.622,0,0,0,34.094,21.471Z" transform="translate(-11.001 -11.001)" fill-rule="evenodd" fill="url(#linear-gradient)"/>
</svg>
