<svg xmlns="http://www.w3.org/2000/svg" width="16" height="16.998" viewBox="0 0 16 16.998">
  <path id="campaign" d="M21033.152,2107h-7.3a3.929,3.929,0,0,1-3.848-4v-4.419a3.933,3.933,0,0,1,3.848-4h.16a3.735,3.735,0,0,1,1.031-2.53,3.5,3.5,0,0,1,2.465-1.048,3.381,3.381,0,0,1,2.445,1.048,3.625,3.625,0,0,1,1.035,2.53h.164a3.937,3.937,0,0,1,3.852,4V2103A3.932,3.932,0,0,1,21033.152,2107Zm-5.148-3.99h.039a.576.576,0,0,1,.582.541v.013a.633.633,0,0,0,.645.6h.457a.626.626,0,0,0,.641-.613.577.577,0,0,1,.59-.541h.023a.517.517,0,0,1,.258.068l0,0a.67.67,0,0,0,.891-.224l.223-.359a.594.594,0,0,0,0-.612.677.677,0,0,0-.254-.232.544.544,0,0,1-.262-.6.561.561,0,0,1,.266-.338l.012-.007.012-.005a.583.583,0,0,0,.285-.381.576.576,0,0,0-.078-.451l-.207-.351a.669.669,0,0,0-.57-.31.676.676,0,0,0-.32.082.576.576,0,0,1-.281.068.616.616,0,0,1-.516-.271.452.452,0,0,1-.078-.262.473.473,0,0,0-.082-.317.676.676,0,0,0-.562-.312h-.445a.687.687,0,0,0-.562.313.483.483,0,0,0-.09.317.4.4,0,0,1-.074.262.6.6,0,0,1-.512.271.55.55,0,0,1-.277-.068.7.7,0,0,0-.328-.083.656.656,0,0,0-.566.311l-.215.351,0,.006v.006a.584.584,0,0,0-.062.462.605.605,0,0,0,.3.371.555.555,0,0,1,.266.338.526.526,0,0,1-.059.406.576.576,0,0,1-.2.194.605.605,0,0,0-.258.232.585.585,0,0,0,.008.612l.219.359a.661.661,0,0,0,.563.308.711.711,0,0,0,.336-.089A.452.452,0,0,1,21028,2103.008Zm4.426-7.48a.592.592,0,0,0-.582.6v.929a.578.578,0,1,0,1.156,0v-.929A.588.588,0,0,0,21032.43,2095.529Zm-5.926,0a.6.6,0,0,0-.574.6v.929a.578.578,0,1,0,1.156,0v-.929A.592.592,0,0,0,21026.5,2095.529Zm3-3.329a2.335,2.335,0,0,0-1.656.706,2.506,2.506,0,0,0-.684,1.673h4.664A2.38,2.38,0,0,0,21029.508,2092.2Zm.012,9.826h-.016a.945.945,0,0,1-.637-.245.8.8,0,0,1-.262-.6.874.874,0,0,1,.891-.845h.008a.935.935,0,0,1,.633.245.845.845,0,0,1,.258.613A.865.865,0,0,1,21029.52,2102.026Z" transform="translate(-21021.504 -2090.5)" fill="#bdc3d0" stroke="rgba(0,0,0,0)" stroke-width="1"/>
</svg>
