<svg id="checked" xmlns="http://www.w3.org/2000/svg" width="21.656" height="21.656" viewBox="0 0 21.656 21.656">
  <g id="Group_7365" data-name="Group 7365" transform="translate(5.142 2.721)">
    <g id="Group_7364" data-name="Group 7364">
      <path id="Path_1980" data-name="Path 1980" d="M137.463,64.567a.816.816,0,0,0-1.154,0l-9.792,9.766-3.533-3.837a.816.816,0,1,0-1.2,1.106l4.108,4.462a.815.815,0,0,0,.583.263h.017a.817.817,0,0,0,.576-.238l10.393-10.366A.816.816,0,0,0,137.463,64.567Z" transform="translate(-121.568 -64.327)" fill="#2eb480"/>
    </g>
  </g>
  <g id="Group_7367" data-name="Group 7367">
    <g id="Group_7366" data-name="Group 7366">
      <path id="Path_1981" data-name="Path 1981" d="M20.84,10.012a.816.816,0,0,0-.816.816,9.2,9.2,0,1,1-9.2-9.2.816.816,0,1,0,0-1.632A10.828,10.828,0,1,0,21.656,10.828.816.816,0,0,0,20.84,10.012Z" fill="#2eb480"/>
    </g>
  </g>
</svg>
