<svg xmlns="http://www.w3.org/2000/svg" width="17.188" height="17.188" viewBox="0 0 17.188 17.188">
  <g id="connected" transform="translate(233.339 -83.922)">
    <g id="filter" transform="translate(-1269.749 -808.481)">
      <g id="Group_820" data-name="Group 820" transform="translate(0 5)">
        <g id="Iconly_Bulk_Info_Circle" data-name="Iconly/Bulk/Info Circle" transform="translate(1036.912 887.905)">
          <path id="Fill_1" data-name="Fill 1" d="M16.188,8.094a8.094,8.094,0,1,0-8.094,8.094,8.093,8.093,0,0,0,8.094-8.094" transform="translate(-0.002 -0.002)" fill="#2eb480" stroke="#2eb480" stroke-width="1"/>
        </g>
      </g>
    </g>
    <path id="Fill_4" data-name="Fill 4" d="M2.676,5.315A.764.764,0,0,1,2.141,5.1L.224,3.26A.722.722,0,0,1,.218,2.22a.77.77,0,0,1,1.068-.007L2.665,3.539,6.033.219A.77.77,0,0,1,7.1.212a.721.721,0,0,1,.007,1.039L3.209,5.1a.76.76,0,0,1-.533.219" transform="translate(-228.161 90.36)" fill="#fff"/>
  </g>
</svg>
