<svg xmlns="http://www.w3.org/2000/svg" xmlns:xlink="http://www.w3.org/1999/xlink" width="32.852" height="39.461" viewBox="0 0 32.852 39.461">
  <defs>
    <linearGradient id="linear-gradient" x1="0.5" x2="0.5" y2="1" gradientUnits="objectBoundingBox">
      <stop offset="0" stop-color="#f9b035"/>
      <stop offset="0.53" stop-color="#f98c4e"/>
      <stop offset="1" stop-color="#f96767"/>
    </linearGradient>
  </defs>
  <path id="doc" d="M352.038,4075.46a9.181,9.181,0,0,1-9.032-9.292V4044.9a8.778,8.778,0,0,1,8.628-8.9h10.217a.9.9,0,0,1,.879.908v6.353a6.526,6.526,0,0,0,6.393,6.591c.817,0,1.534,0,2.168.012h2.32c.442,0,.939-.01,1.384-.01a.875.875,0,0,1,.862.885V4066.6a8.739,8.739,0,0,1-8.592,8.86Zm.019-12.547a1.477,1.477,0,0,0,1.436,1.48H363.9a1.477,1.477,0,0,0,1.436-1.48,1.449,1.449,0,0,0-1.436-1.462h-10.41a1.449,1.449,0,0,0-1.434,1.46Zm0-9.846a1.448,1.448,0,0,0,1.436,1.46h6.464a1.448,1.448,0,0,0,1.435-1.46,1.475,1.475,0,0,0-1.435-1.479h-6.466a1.476,1.476,0,0,0-1.434,1.478Zm17.322-6.1a3.942,3.942,0,0,1-3.865-3.979v-5.2a.924.924,0,0,1,.9-.945.908.908,0,0,1,.671.287l7.7,8.261a.954.954,0,0,1-.032,1.33.914.914,0,0,1-.625.26H372.8c-1.206,0-2.45,0-3.418-.013Z" transform="translate(-343.006 -4035.999)" fill="url(#linear-gradient)"/>
</svg>
