<svg xmlns="http://www.w3.org/2000/svg" width="9.859" height="16.867" viewBox="0 0 9.859 16.867">
  <g id="drop-up-down" transform="translate(0 0)">
    <path id="arrow_dow_copy" data-name="arrow dow copy" d="M1289.253,1202.206a.807.807,0,0,1,1.063-.08l.091.08,3.536,3.627,3.536-3.627a.807.807,0,0,1,1.063-.08l.091.08a.835.835,0,0,1,.079,1.077l-.079.092-4.113,4.213a.807.807,0,0,1-1.062.079l-.091-.079-4.113-4.213A.835.835,0,0,1,1289.253,1202.206Z" transform="translate(-1289.015 -1190.963)" fill="#7a86a1"/>
    <path id="arrow_dow_copy-2" data-name="arrow dow copy" d="M1289.254,1207.587a.807.807,0,0,0,1.063.08l.091-.08,3.537-3.627,3.537,3.627a.807.807,0,0,0,1.063.08l.091-.08a.835.835,0,0,0,.079-1.077l-.079-.092-4.114-4.212a.807.807,0,0,0-1.063-.079l-.091.079-4.113,4.212A.835.835,0,0,0,1289.254,1207.587Z" transform="translate(-1289.015 -1201.963)" fill="#7a86a1"/>
  </g>
</svg>
