<svg xmlns="http://www.w3.org/2000/svg" width="11.286" height="11.263" viewBox="0 0 11.286 11.263">
  <g id="Edit-icon" transform="translate(-4.875 -4.111)">
    <path id="Edit_Square" data-name="Edit Square" d="M15.7,8.1,8.981,14.845a1.848,1.848,0,0,1-1.289.529H5.345a.476.476,0,0,1-.34-.14.467.467,0,0,1-.13-.34l.06-2.368a1.8,1.8,0,0,1,.529-1.239L10.23,6.524a.217.217,0,0,1,.3,0L12.2,8.182a.627.627,0,0,0,.44.18A.659.659,0,0,0,13.3,7.7a.677.677,0,0,0-.18-.46C13.087,7.2,11.5,5.625,11.5,5.625a.265.265,0,0,1,0-.37l.669-.679a1.58,1.58,0,0,1,2.238,0l1.3,1.3a1.586,1.586,0,0,1,0,2.228" transform="translate(0 0)" fill="#6236ff"/>
  </g>
</svg>
