<svg xmlns="http://www.w3.org/2000/svg" width="16" height="17.218" viewBox="0 0 16 17.218">
  <path id="genreral-s" d="M21029.547,2107.217h-.094a3.693,3.693,0,0,1-1.8-.5l-3.8-2.2a3.708,3.708,0,0,1-1.84-3.2V2096.9a3.7,3.7,0,0,1,1.84-3.2l3.8-2.205a3.7,3.7,0,0,1,3.7,0l3.8,2.205a3.705,3.705,0,0,1,1.848,3.2v4.419a3.719,3.719,0,0,1-1.848,3.2l-3.8,2.2A3.681,3.681,0,0,1,21029.547,2107.217Zm-.043-10.689a2.762,2.762,0,1,0,2.758,2.76A2.764,2.764,0,0,0,21029.5,2096.528Z" transform="translate(-21021.504 -2090.499)" fill="#6149cd" stroke="rgba(0,0,0,0)" stroke-width="1"/>
</svg>
