<svg xmlns="http://www.w3.org/2000/svg" width="15.656" height="15.656" viewBox="0 0 15.656 15.656">
  <path id="Path_1967" data-name="Path 1967" d="M9.828,17.656a7.828,7.828,0,1,1,7.828-7.828A7.828,7.828,0,0,1,9.828,17.656ZM8.035,15.83a14.012,14.012,0,0,1-1.317-5.219h-3.1A6.269,6.269,0,0,0,8.035,15.83Zm.251-5.219A12.45,12.45,0,0,0,9.828,15.9a12.45,12.45,0,0,0,1.542-5.286Zm7.756,0h-3.1a14.012,14.012,0,0,1-1.317,5.219A6.269,6.269,0,0,0,16.042,10.611ZM3.614,9.045h3.1A14.012,14.012,0,0,1,8.035,3.826,6.269,6.269,0,0,0,3.614,9.045Zm4.672,0H11.37A12.45,12.45,0,0,0,9.828,3.76,12.45,12.45,0,0,0,8.287,9.045Zm3.334-5.219a14.012,14.012,0,0,1,1.317,5.219h3.1A6.269,6.269,0,0,0,11.621,3.826Z" transform="translate(-2 -2)" fill="#7a86a1"/>
</svg>
