<svg xmlns="http://www.w3.org/2000/svg" width="22.671" height="18.096" viewBox="0 0 22.671 18.096">
  <g id="back" transform="translate(-1155.017 -1544.025)">
    <path id="next" d="M1165.093,1561.83a.981.981,0,0,0,.089-1.315l-.089-.1-6.551-6.336h18.117a1,1,0,0,0,.126-2l-.126-.007h-20.614a1.031,1.031,0,0,0-.952.619.979.979,0,0,0,.134.986l.092.1,8.314,8.049a1.052,1.052,0,0,0,1.443.013l.013-.013Zm-4.694-11.564.1-.087,4.592-4.442a.982.982,0,0,0,0-1.417,1.053,1.053,0,0,0-1.354-.093l-.107.09-4.585,4.438a.985.985,0,0,0,0,1.418,1.052,1.052,0,0,0,1.352.093Z" transform="translate(0)"/>
  </g>
</svg>
