<svg xmlns="http://www.w3.org/2000/svg" width="14.929" height="14.93" viewBox="0 0 14.929 14.93">
  <g id="edit" transform="translate(0 0)">
    <path id="Edit-2" data-name="Edit" d="M9.355,14.93a.849.849,0,0,1,0-1.7h4.736a.849.849,0,0,1,0,1.7ZM.7,14.578l-.66-2.862a1.768,1.768,0,0,1,.334-1.489L5.544,3.54A.259.259,0,0,1,5.9,3.5L8.07,5.225a.7.7,0,0,0,.537.152.784.784,0,0,0,.678-.865.874.874,0,0,0-.273-.526L6.9,2.292a.313.313,0,0,1-.053-.436L7.665.794A2.143,2.143,0,0,1,10.807.58l1.223.972a2.539,2.539,0,0,1,.95,1.453,1.992,1.992,0,0,1-.4,1.694L5.289,14.123a1.746,1.746,0,0,1-1.356.678l-2.9.035A.331.331,0,0,1,.7,14.578Z" transform="translate(0 0)" fill="#6149cd"/>
  </g>
</svg>
