<svg xmlns="http://www.w3.org/2000/svg" xmlns:xlink="http://www.w3.org/1999/xlink" width="18.881" height="13.495" viewBox="0 0 18.881 13.495">
  <defs>
    <clipPath id="clip-path">
      <rect id="Rectangle_110" data-name="Rectangle 110" width="18.881" height="13.495" fill="#3a8def"/>
    </clipPath>
  </defs>
  <g id="quick-replies" clip-path="url(#clip-path)">
    <path id="Path_205" data-name="Path 205" d="M9.092,10.815a1.172,1.172,0,0,1,1.172-1.172h.788a8.818,8.818,0,0,1,7.182,3.7.354.354,0,0,0,.647-.208,9.8,9.8,0,0,0-8.739-9.312A1.194,1.194,0,0,1,9.092,2.665V1.226a1.07,1.07,0,0,0-1.7-1L.439,5.791a1.171,1.171,0,0,0,0,1.829l6.75,5.4a1.171,1.171,0,0,0,1.9-.914Z" transform="translate(0.001 0)" fill="#3a8def"/>
  </g>
</svg>
