<svg xmlns="http://www.w3.org/2000/svg" width="14.93" height="15.719" viewBox="0 0 14.93 15.719">
  <g id="setting-g" transform="translate(-0.002)">
    <path id="Setting" d="M8.013,15.719H6.92a1.624,1.624,0,0,1-1.67-1.611,1.5,1.5,0,0,0-1.478-1.43,1.242,1.242,0,0,0-.707.181,1.7,1.7,0,0,1-.852.236,1.668,1.668,0,0,1-1.43-.817L.23,11.333A1.575,1.575,0,0,1,.214,9.722,1.657,1.657,0,0,1,.856,9.1a1.3,1.3,0,0,0,.506-.5,1.4,1.4,0,0,0,.149-1.073A1.444,1.444,0,0,0,.84,6.634,1.607,1.607,0,0,1,.246,4.409l.538-.927a1.668,1.668,0,0,1,2.265-.6,1.489,1.489,0,0,0,.7.176,1.54,1.54,0,0,0,1.311-.718A1.209,1.209,0,0,0,5.25,1.65,1.406,1.406,0,0,1,5.475.818,1.731,1.731,0,0,1,6.9,0H8.029a1.693,1.693,0,0,1,1.43.818,1.4,1.4,0,0,1,.216.833,1.214,1.214,0,0,0,.185.692,1.544,1.544,0,0,0,1.314.718,1.513,1.513,0,0,0,.71-.176,1.659,1.659,0,0,1,2.257.6l.538.927a1.593,1.593,0,0,1-.594,2.225,1.438,1.438,0,0,0-.671.894A1.392,1.392,0,0,0,13.571,8.6a1.234,1.234,0,0,0,.5.5,1.813,1.813,0,0,1,.651.62,1.6,1.6,0,0,1-.016,1.611l-.562.944a1.649,1.649,0,0,1-2.273.581,1.274,1.274,0,0,0-.707-.181,1.493,1.493,0,0,0-1.486,1.43A1.62,1.62,0,0,1,8.013,15.719ZM7.475,5.643A2.256,2.256,0,0,0,5.194,7.867a2.172,2.172,0,0,0,.668,1.571,2.3,2.3,0,0,0,1.614.646,2.218,2.218,0,0,0,1.6-3.791A2.261,2.261,0,0,0,7.475,5.643Z" transform="translate(0.002 0)" fill="#7a86a1"/>
  </g>
</svg>
