<svg id="sort" xmlns="http://www.w3.org/2000/svg" width="10.999" height="9.899" viewBox="0 0 10.999 9.899">
  <path id="Swap" d="M7.949,9.745a2.444,2.444,0,0,1-.239-.217A9.714,9.714,0,0,1,6,6.981a2.233,2.233,0,0,1-.176-.593V6.363a.8.8,0,0,1,.428-.708A3.583,3.583,0,0,1,6.823,5.5a11.493,11.493,0,0,1,1.591-.1,9.858,9.858,0,0,1,1.642.108,4.1,4.1,0,0,1,.459.115.825.825,0,0,1,.39.357.9.9,0,0,1,.094.4,2.131,2.131,0,0,1-.145.53,9.774,9.774,0,0,1-1.735,2.6c-.088.089-.2.185-.22.21a.787.787,0,0,1-.49.166A.75.75,0,0,1,7.949,9.745ZM1.933,8.478,2.074,5.96a.514.514,0,1,1,1.027,0l.141,2.518a.655.655,0,1,1-1.31,0ZM.943,4.385A4.068,4.068,0,0,1,.484,4.27a.82.82,0,0,1-.39-.357A.891.891,0,0,1,0,3.511a2.168,2.168,0,0,1,.144-.53A9.768,9.768,0,0,1,1.88.377c.089-.089.2-.185.22-.211A.788.788,0,0,1,2.591,0,.752.752,0,0,1,3.05.153,2.522,2.522,0,0,1,3.289.37,9.761,9.761,0,0,1,5,2.917a2.259,2.259,0,0,1,.177.593v.026a.805.805,0,0,1-.428.708,3.542,3.542,0,0,1-.572.154,11.5,11.5,0,0,1-1.591.1A9.858,9.858,0,0,1,.943,4.385ZM7.9,3.939,7.756,1.42a.655.655,0,1,1,1.31,0L8.925,3.939a.514.514,0,1,1-1.027,0Z" transform="translate(0 0)" fill="#7a86a1"/>
</svg>
