<svg xmlns="http://www.w3.org/2000/svg" xmlns:xlink="http://www.w3.org/1999/xlink" width="70" height="70" viewBox="0 0 70 70">
  <defs>
    <clipPath id="clip-path">
      <rect id="your_image_here" data-name="your image here" width="70" height="70" rx="28" transform="translate(776 749)" fill="#f9e9cc"/>
    </clipPath>
  </defs>
  <g id="deli-camp" transform="translate(-395 -910)">
    <g id="project_1" data-name="project 1" transform="translate(-381 161)">
      <g id="image">
        <g id="your_image_here-2" data-name="your image here">
          <rect id="your_image_here-3" data-name="your image here" width="70" height="70" rx="28" transform="translate(776 749)" fill="#f9e9cc"/>
        </g>
      </g>
    </g>
    <g id="Tick_Square" data-name="Tick Square" transform="translate(420 935)">
      <path id="Tick_Square-2" data-name="Tick Square" d="M14.34,20H5.67C2.279,20,0,17.625,0,14.091V5.92C0,2.379,2.279,0,5.67,0h8.67C17.725,0,20,2.379,20,5.92v8.171C20,17.625,17.725,20,14.34,20ZM6.44,9.125a.875.875,0,0,0-.62,1.5L8.2,12.99a.881.881,0,0,0,1.23,0L14.18,8.24A.877.877,0,0,0,12.94,7L8.81,11.13,7.06,9.38A.868.868,0,0,0,6.44,9.125Z" transform="translate(0 0)" fill="#f8ab1e"/>
    </g>
  </g>
</svg>
