<svg xmlns="http://www.w3.org/2000/svg" xmlns:xlink="http://www.w3.org/1999/xlink" width="70" height="70" viewBox="0 0 70 70">
  <defs>
    <clipPath id="clip-path">
      <rect id="your_image_here" data-name="your image here" width="70" height="70" rx="28" transform="translate(776 749)" fill="#ebefe0"/>
    </clipPath>
  </defs>
  <g id="Group_431" data-name="Group 431" transform="translate(-724 -1482)">
    <g id="project_1" data-name="project 1" transform="translate(-52 733)">
      <g id="image">
        <g id="your_image_here-2" data-name="your image here">
          <rect id="your_image_here-3" data-name="your image here" width="70" height="70" rx="28" transform="translate(776 749)" fill="#e2f4ec"/>
        </g>
      </g>
    </g>
    <path id="Path_144" data-name="Path 144" d="M114.931,14.079V20a1,1,0,0,1-1,1H108.01a1.006,1.006,0,0,1-1-1.137,8.006,8.006,0,0,1,6.783-6.783,1.006,1.006,0,0,1,1.137,1m5.395,6.739-.541.284a1,1,0,0,1-1.451-1.054l.1-.6a1.3,1.3,0,0,0-.374-1.151l-.437-.427a1,1,0,0,1,.554-1.706l.605-.088a1.3,1.3,0,0,0,.98-.711l.27-.547a1,1,0,0,1,1.793,0l.27.548a1.3,1.3,0,0,0,.98.711l.6.088a1,1,0,0,1,.554,1.706l-.438.427a1.3,1.3,0,0,0-.374,1.151l.1.6a1,1,0,0,1-1.451,1.054l-.54-.284a1.3,1.3,0,0,0-1.21,0M114.931,12a6,6,0,1,1,6-6,6,6,0,0,1-6,6" transform="translate(642.998 1506)" fill="#2aba7d"/>
  </g>
</svg>
