<svg id="add-User" xmlns="http://www.w3.org/2000/svg" width="18.403" height="17.483" viewBox="0 0 18.403 17.483">
  <path id="Add_User" data-name="Add User" d="M0,14.49c0-2.378,3.178-2.973,6.9-2.973,3.742,0,6.9.615,6.9,2.994s-3.179,2.973-6.9,2.973C3.159,17.483,0,16.866,0,14.49ZM14.815,9.283V8.2H13.709a.839.839,0,0,1,0-1.678h1.106V5.439a.827.827,0,1,1,1.655,0V6.522h1.106a.839.839,0,0,1,0,1.678H16.47V9.283a.827.827,0,1,1-1.655,0ZM2.335,4.625a4.567,4.567,0,1,1,9.133,0,4.567,4.567,0,1,1-9.133,0Z" fill="#6149cd"/>
</svg>
