<svg xmlns="http://www.w3.org/2000/svg" xmlns:xlink="http://www.w3.org/1999/xlink" width="13.14" height="14.493" viewBox="0 0 13.14 14.493">
  <defs>
    <clipPath id="clip-path">
      <rect id="Rectangle_67" data-name="Rectangle 67" width="13.14" height="14.493" fill="#7a86a1"/>
    </clipPath>
  </defs>
  <g id="attachment-icon" transform="translate(0 0)">
    <g id="Group_205" data-name="Group 205" transform="translate(0 0)" clip-path="url(#clip-path)">
      <path id="Path_155" data-name="Path 155" d="M8.593,3.775a.765.765,0,0,1,0,1.081L4.81,8.639a.764.764,0,1,0,1.062,1.1l.019-.019,4.244-4.243a2.37,2.37,0,0,0,.355-2.993,2.3,2.3,0,0,0-3.518-.329L2.648,6.477a3.823,3.823,0,0,0,.365,5.787,3.781,3.781,0,0,0,3.335.639,3.942,3.942,0,0,0,1.7-1.023L11.836,8.1a.764.764,0,0,1,1.081,1.081l-3.64,3.64a5.486,5.486,0,0,1-7.207.589,5.351,5.351,0,0,1-.5-8.011L5.891,1.073a3.821,3.821,0,0,1,5.4,5.4L7.052,10.722a2.369,2.369,0,0,1-2.994.355,2.3,2.3,0,0,1-.329-3.518L7.512,3.775A.765.765,0,0,1,8.593,3.775Z" transform="translate(0 0)" fill="#7a86a1"/>
    </g>
  </g>
</svg>
