<svg xmlns="http://www.w3.org/2000/svg" width="15" height="15" viewBox="0 0 15 15">
  <path id="attributes" d="M10.035,14H3.968A3.843,3.843,0,0,1,0,9.857V4.14A3.838,3.838,0,0,1,3.963,0h6.071A3.84,3.84,0,0,1,14,4.14V9.857A3.841,3.841,0,0,1,10.035,14ZM7.8,3.637a.506.506,0,0,0-.5.354L5.7,9.782a.428.428,0,0,0,.046.335.5.5,0,0,0,.328.227.475.475,0,0,0,.122.015.62.62,0,0,0,.269-.065.486.486,0,0,0,.234-.285L8.3,4.215a.422.422,0,0,0-.044-.333.519.519,0,0,0-.33-.23A.552.552,0,0,0,7.8,3.637ZM4.594,4.794a.452.452,0,0,0-.311.117L2.23,6.749a.392.392,0,0,0-.128.285.385.385,0,0,0,.128.281L4.283,9.152a.474.474,0,0,0,.623,0,.371.371,0,0,0,0-.565L3.168,7.033,4.906,5.473a.388.388,0,0,0,.13-.281.372.372,0,0,0-.13-.281A.456.456,0,0,0,4.594,4.794ZM9.416,4.65a.458.458,0,0,0-.318.114.38.38,0,0,0-.128.281.372.372,0,0,0,.128.281l1.74,1.56L9.1,8.443a.368.368,0,0,0-.128.278.387.387,0,0,0,.128.287.476.476,0,0,0,.625,0l2.051-1.841a.383.383,0,0,0,.133-.281.369.369,0,0,0-.133-.281L9.723,4.764A.446.446,0,0,0,9.416,4.65Z" transform="translate(0.5 0.5)" fill="#7a86a1" stroke="rgba(0,0,0,0)" stroke-width="1"/>
</svg>
