<svg xmlns="http://www.w3.org/2000/svg" width="13.998" height="14" viewBox="0 0 13.998 14">
  <path id="attribute" d="M17002.318,5183h-5.633a3.568,3.568,0,0,1-3.684-3.847v-5.309a3.564,3.564,0,0,1,3.68-3.844h5.637a3.565,3.565,0,0,1,3.682,3.844v5.309A3.567,3.567,0,0,1,17002.318,5183Zm-2.07-9.622a.47.47,0,0,0-.463.328l-1.488,5.378a.4.4,0,0,0,.043.311.469.469,0,0,0,.3.21.45.45,0,0,0,.113.014.574.574,0,0,0,.25-.061.451.451,0,0,0,.217-.264l1.486-5.381a.392.392,0,0,0-.041-.309.482.482,0,0,0-.307-.213A.5.5,0,0,0,17000.248,5173.379Zm-2.98,1.074a.42.42,0,0,0-.289.108l-1.906,1.707a.364.364,0,0,0-.119.264.358.358,0,0,0,.119.261l1.906,1.707a.44.44,0,0,0,.578,0,.357.357,0,0,0,.121-.264.36.36,0,0,0-.121-.261l-1.613-1.443,1.613-1.449a.36.36,0,0,0,.121-.261.345.345,0,0,0-.121-.261A.423.423,0,0,0,16997.268,5174.454Zm4.477-.133a.425.425,0,0,0-.295.105.352.352,0,0,0-.119.261.346.346,0,0,0,.119.261l1.615,1.449-1.615,1.446a.341.341,0,0,0-.119.258.36.36,0,0,0,.119.267.442.442,0,0,0,.58,0l1.9-1.71a.354.354,0,0,0,.123-.261.342.342,0,0,0-.123-.261l-1.9-1.709A.414.414,0,0,0,17001.744,5174.32Z" transform="translate(-16992.502 -5169.502)" fill="#6149cd" stroke="rgba(0,0,0,0)" stroke-width="1"/>
</svg>
