<svg xmlns="http://www.w3.org/2000/svg" xmlns:xlink="http://www.w3.org/1999/xlink" width="28" height="28" viewBox="0 0 28 28">
  <defs>
    <linearGradient id="linear-gradient" x1="0.5" x2="0.5" y2="1" gradientUnits="objectBoundingBox">
      <stop offset="0" stop-color="#f9b035"/>
      <stop offset="0.53" stop-color="#f98c4e"/>
      <stop offset="1" stop-color="#f96767"/>
    </linearGradient>
  </defs>
  <g id="automotion-chat-stamp" transform="translate(-1389 -297)">
    <g id="Group_871" data-name="Group 871" transform="translate(-2 -37)">
      <g id="Ellipse_1063" data-name="Ellipse 1063" transform="translate(1391 334)" stroke="#ebebeb" stroke-width="1" fill="url(#linear-gradient)">
        <circle cx="14" cy="14" r="14" stroke="none"/>
        <circle cx="14" cy="14" r="13.5" fill="none"/>
      </g>
      <path id="Exclusion_15" data-name="Exclusion 15" d="M17220.932,13021.865a1.106,1.106,0,0,1-.783-.324l-1.244-1.245a.459.459,0,0,0-.324-.135h-1.764a1.111,1.111,0,0,1-1.107-1.111v-1.764a.458.458,0,0,0-.139-.32l-1.246-1.249a1.1,1.1,0,0,1-.324-.752v-.061a1.1,1.1,0,0,1,.324-.753l1.246-1.249a.468.468,0,0,0,.139-.324v-1.765a1.109,1.109,0,0,1,1.107-1.106h1.764a.462.462,0,0,0,.324-.134l1.244-1.25a1.106,1.106,0,0,1,.783-.324,1.118,1.118,0,0,1,.787.324l1.244,1.25a.462.462,0,0,0,.324.134h1.766a1.107,1.107,0,0,1,1.105,1.106v1.765a.455.455,0,0,0,.135.324l1.25,1.249a1.108,1.108,0,0,1,0,1.565l-1.25,1.249a.45.45,0,0,0-.135.32v1.764a1.109,1.109,0,0,1-1.105,1.111h-1.766a.459.459,0,0,0-.324.135l-1.244,1.245A1.125,1.125,0,0,1,17220.932,13021.865Z" transform="translate(-15815.934 -12666.932)" stroke="rgba(0,0,0,0)" stroke-width="1"/>
    </g>
    <g id="Group_874" data-name="Group 874" transform="translate(7.637 -27.364)">
      <circle id="Ellipse_1063-2" data-name="Ellipse 1063" cx="3" cy="3" r="3" transform="translate(1392.364 335.364)" fill="#f99b43"/>
    </g>
  </g>
</svg>
