<?xml version="1.0" encoding="UTF-8"?>
<svg xmlns="http://www.w3.org/2000/svg" xmlns:xlink="http://www.w3.org/1999/xlink" width="21px" height="21px" viewBox="0 0 21 21" version="1.1">
<g id="surface1">
<path style=" stroke:none;fill-rule:nonzero;fill:rgb(74.117649%,76.47059%,81.568629%);fill-opacity:1;" d="M 18.375 9.601562 L 18.375 7 C 18.375 6.035156 17.589844 5.25 16.625 5.25 L 11.375 5.25 L 11.375 4.101562 C 11.640625 3.863281 11.8125 3.515625 11.8125 3.128906 C 11.8125 2.40625 11.226562 1.816406 10.5 1.816406 C 9.773438 1.816406 9.1875 2.40625 9.1875 3.128906 C 9.1875 3.515625 9.359375 3.863281 9.625 4.101562 L 9.625 5.25 L 4.375 5.25 C 3.410156 5.25 2.625 6.035156 2.625 7 L 2.625 9.625 L 2.5625 9.628906 C 2.105469 9.660156 1.75 10.042969 1.75 10.5 L 1.75 12.25 C 1.75 12.734375 2.140625 13.125 2.625 13.125 L 2.625 17.5 C 2.625 18.464844 3.410156 19.25 4.375 19.25 L 16.625 19.25 C 17.589844 19.25 18.375 18.464844 18.375 17.5 L 18.375 13.125 C 18.859375 13.125 19.25 12.734375 19.25 12.25 L 19.25 10.554688 C 19.261719 10.417969 19.238281 10.28125 19.1875 10.15625 C 19.011719 9.730469 18.632812 9.625 18.375 9.601562 Z M 6.125 10.5 C 6.125 9.535156 6.714844 8.75 7.4375 8.75 C 8.160156 8.75 8.75 9.535156 8.75 10.5 C 8.75 11.464844 8.160156 12.25 7.4375 12.25 C 6.714844 12.25 6.125 11.464844 6.125 10.5 Z M 14 15.75 C 13.121094 15.746094 7 15.75 7 15.75 L 7 14 C 7 14 13.125 14 14 14 Z M 13.5625 12.25 C 12.839844 12.25 12.25 11.464844 12.25 10.5 C 12.25 9.535156 12.839844 8.75 13.5625 8.75 C 14.285156 8.75 14.875 9.535156 14.875 10.5 C 14.875 11.464844 14.285156 12.25 13.5625 12.25 Z M 13.5625 12.25 "/>
</g>
</svg>
