<svg xmlns="http://www.w3.org/2000/svg" width="14.993" height="16.992" viewBox="0 0 14.993 16.992">
  <path id="delete" d="M1239.279,903.958a2.451,2.451,0,0,1-2.442-2.4c-.261-2.419-.7-8.137-.7-8.195a.68.68,0,0,1,.159-.474.584.584,0,0,1,.436-.2h11.554a.6.6,0,0,1,.436.2.641.641,0,0,1,.151.474c0,.058-.444,5.785-.7,8.195a2.452,2.452,0,0,1-2.5,2.4c-1.075.022-2.13.031-3.17.031C1241.4,903.991,1240.324,903.983,1239.279,903.958Zm-3.68-12.634a.615.615,0,0,1-.595-.624v-.323a.609.609,0,0,1,.595-.624h2.429a1.073,1.073,0,0,0,1.034-.862l.127-.579a1.665,1.665,0,0,1,1.593-1.313h3.439a1.662,1.662,0,0,1,1.583,1.274l.136.62a1.071,1.071,0,0,0,1.034.863h2.429a.609.609,0,0,1,.6.62h0v.323a.615.615,0,0,1-.594.624Z" transform="translate(-1235.004 -886.999)" fill="#f23b3b"/>
</svg>
