<svg id="docs-attachment" xmlns="http://www.w3.org/2000/svg" xmlns:xlink="http://www.w3.org/1999/xlink" width="16" height="17.647" viewBox="0 0 16 17.647">
  <defs>
    <clipPath id="clip-path">
      <rect id="Rectangle_67" data-name="Rectangle 67" width="16" height="17.647" fill="#7a86a1"/>
    </clipPath>
  </defs>
  <g id="Group_205" data-name="Group 205" clip-path="url(#clip-path)">
    <path id="Path_155" data-name="Path 155" d="M10.463,4.6a.931.931,0,0,1,0,1.316L5.857,10.519A.931.931,0,1,0,7.15,11.858l.023-.023,5.168-5.167a2.886,2.886,0,0,0,.432-3.644,2.8,2.8,0,0,0-4.284-.4L3.225,7.887a4.656,4.656,0,0,0,.444,7.047,4.6,4.6,0,0,0,4.061.778,4.8,4.8,0,0,0,2.075-1.245l4.607-4.606a.93.93,0,0,1,1.316,1.316L11.3,15.609a6.679,6.679,0,0,1-8.776.717A6.516,6.516,0,0,1,1.908,6.57L7.173,1.307a4.653,4.653,0,0,1,6.58,6.58L8.587,13.055a2.885,2.885,0,0,1-3.645.432A2.794,2.794,0,0,1,4.54,9.2L9.147,4.6A.931.931,0,0,1,10.463,4.6Z" transform="translate(0 0)" fill="#7a86a1"/>
  </g>
</svg>
