<svg id="duble-tick-g" xmlns="http://www.w3.org/2000/svg" width="16" height="16" viewBox="0 0 16 16">
  <g id="Time_Circle" data-name="Time Circle" transform="translate(0 0)">
    <path id="Fill_1" data-name="Fill 1" d="M16,8A8,8,0,1,1,8,0a8,8,0,0,1,8,8" transform="translate(0 0)" fill="#fff"/>
  </g>
  <path id="Union_4" data-name="Union 4" d="M4.934,5.376l-.752-.753.9-.9.3.3L8.849.559a.638.638,0,0,1,.9.9L5.838,5.376a.64.64,0,0,1-.9,0ZM1.692,5,.187,3.5a.638.638,0,1,1,.9-.9L2.144,3.65,5.606.187a.639.639,0,0,1,.9.9L2.6,5a.639.639,0,0,1-.9,0Z" transform="translate(2.939 5.488)" fill="#7a86a1"/>
</svg>
