<svg id="emoji" xmlns="http://www.w3.org/2000/svg" xmlns:xlink="http://www.w3.org/1999/xlink" width="15" height="15" viewBox="0 0 15 15">
  <defs>
    <clipPath id="clip-path">
      <rect id="Rectangle_68" data-name="Rectangle 68" width="15" height="15" fill="#7a86a1"/>
    </clipPath>
  </defs>
  <g id="Group_207" data-name="Group 207" clip-path="url(#clip-path)">
    <path id="Path_156" data-name="Path 156" d="M8.77,14.9A7.5,7.5,0,1,1,14.895,8.77,7.509,7.509,0,0,1,8.77,14.9M4.6,7.5a.752.752,0,0,0-.728.936,3.751,3.751,0,0,0,7.264,0A.752.752,0,0,0,10.4,7.5h0a.774.774,0,0,0-.733.6,2.251,2.251,0,0,1-4.339,0A.774.774,0,0,0,4.6,7.5Z" transform="translate(0 0)" fill="#7a86a1"/>
  </g>
</svg>
