<svg id="filter-icon" xmlns="http://www.w3.org/2000/svg" width="16.622" height="14.775" viewBox="0 0 16.622 14.775">
  <path id="Filter" d="M10.906,11.967a2.859,2.859,0,1,1,2.858,2.808A2.834,2.834,0,0,1,10.906,11.967ZM1.253,13.232a1.231,1.231,0,1,1,0-2.462H6.718a1.231,1.231,0,1,1,0,2.462ZM0,2.808A2.834,2.834,0,0,1,2.858,0,2.833,2.833,0,0,1,5.716,2.808,2.833,2.833,0,0,1,2.858,5.617,2.834,2.834,0,0,1,0,2.808ZM9.905,4.039a1.231,1.231,0,1,1,0-2.462H15.37a1.231,1.231,0,1,1,0,2.462Z" transform="translate(0 0)" fill="#7a86a1"/>
</svg>
