<svg xmlns="http://www.w3.org/2000/svg" width="19.824" height="19.883" viewBox="0 0 19.824 19.883">
  <path id="icon-send" d="M1474.255,993.669a1.915,1.915,0,0,0-1.919-.5l-15.961,4.653a1.906,1.906,0,0,0-1.373,1.512,2.242,2.242,0,0,0,.992,2.087l5,3.078a1.287,1.287,0,0,0,1.6-.192l5.716-5.766a.727.727,0,0,1,1.029-.022l.022.022a.76.76,0,0,1,0,1.061l-5.726,5.766a1.318,1.318,0,0,0-.192,1.609l3.048,5.054a1.894,1.894,0,0,0,1.65.94,2.054,2.054,0,0,0,.248-.01,1.935,1.935,0,0,0,1.618-1.382l4.733-15.98a1.956,1.956,0,0,0-.476-1.932" transform="translate(-1454.991 -993.09)" fill="#fff"/>
</svg>
