<svg xmlns="http://www.w3.org/2000/svg" width="14" height="14" viewBox="0 0 14 14">
  <g id="insert-temp" transform="translate(14.001 -0.001) rotate(90)">
    <path id="Chart" d="M10.268,14H3.731a3.747,3.747,0,0,1-2.758-.973A3.747,3.747,0,0,1,0,10.269V3.731A3.747,3.747,0,0,1,.973.973,3.747,3.747,0,0,1,3.731,0h6.538a3.741,3.741,0,0,1,2.756.973A3.766,3.766,0,0,1,14,3.731v6.538a3.746,3.746,0,0,1-.973,2.758A3.748,3.748,0,0,1,10.268,14Zm-.014-6.361a.605.605,0,0,0-.314.089.565.565,0,0,0-.266.553v2.3a.578.578,0,0,0,.581.525.59.59,0,0,0,.581-.525v-2.3a.587.587,0,0,0-.273-.553A.576.576,0,0,0,10.254,7.639ZM7.035,2.8a.576.576,0,0,0-.308.089.593.593,0,0,0-.274.553v7.133a.59.59,0,0,0,.581.525.579.579,0,0,0,.581-.525V3.444a.571.571,0,0,0-.265-.553A.61.61,0,0,0,7.035,2.8ZM3.773,5.1a.575.575,0,0,0-.308.089.59.59,0,0,0-.273.553v4.837a.584.584,0,0,0,1.161,0V5.74a.592.592,0,0,0-.272-.553A.578.578,0,0,0,3.773,5.1Z" transform="translate(0.001 0.001)" fill="#7a86a1"/>
  </g>
</svg>
