<svg xmlns="http://www.w3.org/2000/svg" xmlns:xlink="http://www.w3.org/1999/xlink" width="123" height="123" viewBox="0 0 123 123">
  <defs>
    <filter id="bg" x="0" y="0" width="123" height="123" filterUnits="userSpaceOnUse">
      <feOffset dx="1.389" dy="7.878" input="SourceAlpha"/>
      <feGaussianBlur stdDeviation="14.5" result="blur"/>
      <feFlood flood-color="#695f97" flood-opacity="0.18"/>
      <feComposite operator="in" in2="blur"/>
      <feComposite in="SourceGraphic"/>
    </filter>
  </defs>
  <g id="next" transform="translate(-1251.889 -1496.378)">
    <g transform="matrix(1, 0, 0, 1, 1251.89, 1496.38)" filter="url(#bg)">
      <rect id="bg-2" data-name="bg" width="36" height="36" rx="15" transform="translate(42.11 35.62)" fill="#fff"/>
    </g>
    <path id="next-2" data-name="next" d="M1313.324,1555.793a.648.648,0,0,1-.059-.869l.059-.068,4.329-4.187H1305.68a.661.661,0,0,1-.083-1.319l.083,0H1319.3a.681.681,0,0,1,.629.409.648.648,0,0,1-.088.651l-.061.066-5.495,5.32a.7.7,0,0,1-.954.008l-.009-.008Zm3.1-7.643-.068-.057-3.035-2.936a.649.649,0,0,1,0-.936.7.7,0,0,1,.895-.061l.071.06,3.03,2.933a.651.651,0,0,1,0,.937.7.7,0,0,1-.893.062Z"/>
  </g>
</svg>
