<svg xmlns="http://www.w3.org/2000/svg" xmlns:xlink="http://www.w3.org/1999/xlink" width="23.426" height="23.426" viewBox="0 0 23.426 23.426">
  <defs>
    <clipPath id="clip-path">
      <rect id="Rectangle_105" data-name="Rectangle 105" width="13.641" height="19.488" fill="#6149cd"/>
    </clipPath>
  </defs>
  <g id="pinned" transform="translate(13.78) rotate(45)" clip-path="url(#clip-path)">
    <path id="Path_200" data-name="Path 200" d="M11.014,0a1.654,1.654,0,0,1,1.654,1.654v.3h-.974V7.294a1.655,1.655,0,0,0,.278.918l1.507,2.261a.97.97,0,0,1,.164.541,1.654,1.654,0,0,1-1.654,1.654H9.449A1.654,1.654,0,0,0,7.8,14.321v4.193a.974.974,0,1,1-1.949,0V14.321a1.654,1.654,0,0,0-1.654-1.654H1.654A1.654,1.654,0,0,1,0,11.014a.977.977,0,0,1,.164-.541L1.671,8.212a1.655,1.655,0,0,0,.278-.918V1.949H.974v-.3A1.654,1.654,0,0,1,2.628,0Z" fill="#6149cd"/>
  </g>
</svg>
