<svg xmlns="http://www.w3.org/2000/svg" width="15.026" height="14.967" viewBox="0 0 15.026 14.967">
  <path id="search_icon" data-name="search icon" d="M383.835,284.937l-2.582-2.515h0l-.061-.092a.609.609,0,0,0-.854,0h0a6.115,6.115,0,0,1-7.9.254,5.729,5.729,0,0,1-1.282-7.6,6.081,6.081,0,0,1,7.571-2.221,5.784,5.784,0,0,1,3.241,7.022.581.581,0,0,0,.137.578.619.619,0,0,0,.581.173.6.6,0,0,0,.445-.4h0a6.973,6.973,0,0,0-3.757-8.417,7.347,7.347,0,0,0-9.111,2.352,6.9,6.9,0,0,0,1.022,9.124,7.379,7.379,0,0,0,9.418.385l2.287,2.226a.617.617,0,0,0,.854,0,.585.585,0,0,0,.009-.83l-.009-.008h0Z" transform="translate(-368.993 -271.013)"/>
</svg>
