<svg xmlns="http://www.w3.org/2000/svg" xmlns:xlink="http://www.w3.org/1999/xlink" width="70" height="70" viewBox="0 0 70 70">
  <defs>
    <clipPath id="clip-path">
      <rect id="your_image_here" data-name="your image here" width="70" height="70" rx="28" transform="translate(776 749)" fill="#ecdbea"/>
    </clipPath>
  </defs>
  <g id="seen" transform="translate(-1585 -1935)">
    <g id="total-camp" transform="translate(1190 1146)">
      <g id="project_1" data-name="project 1" transform="translate(-381 40)">
        <g id="image">
          <g id="your_image_here-2" data-name="your image here">
            <rect id="your_image_here-3" data-name="your image here" width="70" height="70" rx="28" transform="translate(776 749)" fill="#d7f3e9"/>
            <g id="tick" transform="translate(803.716 776.715)">
              <g id="Time_Circle" data-name="Time Circle" transform="translate(-2.716 -2.716)">
                <path id="Fill_1" data-name="Fill 1" d="M20,10A10,10,0,1,1,10,0,10,10,0,0,1,20,10" transform="translate(0 0)" fill="#33bf8f"/>
              </g>
              <path id="Union_7" data-name="Union 7" d="M2.929,5.645a.721.721,0,0,1-1.02,0l-1.7-1.7A.72.72,0,1,1,1.23,2.928L2.419,4.117,6.324.211A.72.72,0,1,1,7.343,1.23Z" transform="translate(3.436 4.428)" fill="#33bf8f"/>
            </g>
          </g>
        </g>
      </g>
    </g>
    <g id="Group_1532" data-name="Group 1532" transform="translate(1612.092 1961.731)">
      <g id="green-tick">
        <path id="Union_10" data-name="Union 10" d="M4.934,5.376l-.752-.753.9-.9.3.3L8.849.559a.638.638,0,0,1,.9.9L5.838,5.376a.64.64,0,0,1-.9,0ZM1.692,5,.187,3.5a.638.638,0,1,1,.9-.9L2.144,3.65,5.606.187a.639.639,0,0,1,.9.9L2.6,5a.639.639,0,0,1-.9,0Z" transform="translate(2.939 5.488)" fill="#fff"/>
      </g>
    </g>
  </g>
</svg>
