<svg xmlns="http://www.w3.org/2000/svg" width="11.147" height="14.592" viewBox="0 0 11.147 14.592">
  <path id="st" d="M6.682,8.715C7.775,9.365,8.337,10.053,8.337,11a2.445,2.445,0,0,1-2.716,2.229A5.6,5.6,0,0,1,2.2,11.694L1.305,12.95a6.607,6.607,0,0,0,4.276,1.642c2.371,0,4.377-1.54,4.377-3.648a3.376,3.376,0,0,0-.75-2.223ZM2.821,6.758c.026.019.014-.011.041.007l3.363,0q-.368-.161-.765-.322c-1.7-.709-2.736-1.5-2.736-2.858,0-.851.649-2.229,2.8-2.229a5.672,5.672,0,0,1,2.655.932l.831-1.257A6.628,6.628,0,0,0,5.541,0C2.318,0,1.224,2.229,1.224,3.607a3.506,3.506,0,0,0,1.6,3.151M0,8.422H11.147V7.066H0Z" fill="#7a86a1" fill-rule="evenodd"/>
</svg>
