<svg xmlns="http://www.w3.org/2000/svg" width="30.104" height="30.11" viewBox="0 0 30.104 30.11">
  <g id="whatsapp-icon-l" transform="translate(-375.231 -774.578)">
    <path id="Path_198" data-name="Path 198" d="M2.006,30.9l1.953-7.178a14.442,14.442,0,1,1,5.222,5.22Z" transform="translate(373.938 773.078)" fill="#388716" stroke="#fff" stroke-width="1"/>
    <path id="Path_198-2" data-name="Path 198" d="M7.615,5.755a1.389,1.389,0,0,0-.536.144,1.868,1.868,0,0,0-.425.329,3.22,3.22,0,0,0-.377.442A3.943,3.943,0,0,0,5.46,9.1a5.055,5.055,0,0,0,.477,2.042A13.8,13.8,0,0,0,8.785,15.1c.309.308.611.617.936.9A13.651,13.651,0,0,0,15.27,18.96l.822.126a7.856,7.856,0,0,0,.8-.019,2.875,2.875,0,0,0,1.2-.334c.24-.127.353-.191.553-.318,0,0,.062-.04.181-.13a3.315,3.315,0,0,0,.477-.416,1.658,1.658,0,0,0,.3-.436,4.024,4.024,0,0,0,.272-1.059,2.834,2.834,0,0,0,.02-.539.493.493,0,0,0-.275-.383l-.841-.377s-1.257-.548-2.024-.9a.72.72,0,0,0-.256-.059.7.7,0,0,0-.546.183v0a17.4,17.4,0,0,0-1.149,1.348.506.506,0,0,1-.532.188,2.045,2.045,0,0,1-.276-.1c-.179-.075-.241-.1-.364-.157l-.007,0a8.684,8.684,0,0,1-2.268-1.445c-.182-.159-.351-.332-.524-.5A9.1,9.1,0,0,1,9.369,11.8l-.085-.137a1.334,1.334,0,0,1-.147-.3.463.463,0,0,1,.088-.383s.351-.384.514-.592a6.329,6.329,0,0,0,.38-.539.875.875,0,0,0,.134-.774Q9.646,7.6,9,6.131a.732.732,0,0,0-.568-.36c-.078-.009-.156-.017-.234-.023a4.89,4.89,0,0,0-.582.006Z" transform="translate(377.557 776.992)" fill="#fff"/>
  </g>
</svg>
