<svg xmlns="http://www.w3.org/2000/svg" xmlns:xlink="http://www.w3.org/1999/xlink" width="43.5" height="41.5" viewBox="0 0 43.5 41.5">
  <defs>
    <linearGradient id="linear-gradient" x1="0.5" x2="0.5" y2="1" gradientUnits="objectBoundingBox">
      <stop offset="0" stop-color="#f9b035"/>
      <stop offset="0.53" stop-color="#f98c4e"/>
      <stop offset="1" stop-color="#f96767"/>
    </linearGradient>
  </defs>
  <g id="on-attribute" transform="translate(0.5 0.5)">
    <path id="Exclusion_13" data-name="Exclusion 13" d="M24.37,34H9.635C3.878,34,0,29.956,0,23.939V10.054C0,4.04,3.867,0,9.625,0H24.37C30.127,0,34,4.04,34,10.054V23.939C34,29.956,30.127,34,24.37,34ZM18.954,8.833a1.229,1.229,0,0,0-1.211.859L13.85,23.757a1.04,1.04,0,0,0,.112.813,1.223,1.223,0,0,0,.8.55,1.153,1.153,0,0,0,.3.037A1.5,1.5,0,0,0,15.71,25a1.181,1.181,0,0,0,.567-.691l3.888-14.072a1.025,1.025,0,0,0-.107-.808,1.26,1.26,0,0,0-.8-.559A1.342,1.342,0,0,0,18.954,8.833Zm-7.8,2.809a1.1,1.1,0,0,0-.756.283L5.415,16.39a.952.952,0,0,0-.312.691.936.936,0,0,0,.312.682L10.4,22.226a1.15,1.15,0,0,0,1.512,0,.9.9,0,0,0,0-1.372l-4.22-3.773,4.22-3.79a.943.943,0,0,0,.317-.682.9.9,0,0,0-.317-.683A1.107,1.107,0,0,0,11.158,11.643Zm11.71-.349a1.113,1.113,0,0,0-.771.276.922.922,0,0,0-.312.682.9.9,0,0,0,.312.683l4.225,3.789L22.1,20.506a.894.894,0,0,0-.312.676.94.94,0,0,0,.312.7,1.157,1.157,0,0,0,1.517,0l4.981-4.472a.929.929,0,0,0,.322-.683.9.9,0,0,0-.322-.683L23.614,11.57A1.083,1.083,0,0,0,22.868,11.294Z" stroke="rgba(0,0,0,0)" stroke-width="1" fill="url(#linear-gradient)"/>
    <g id="Ellipse_1104" data-name="Ellipse 1104" transform="translate(22 20)" fill="#f9755d" stroke="#fff" stroke-width="2">
      <circle cx="10.5" cy="10.5" r="10.5" stroke="none"/>
      <circle cx="10.5" cy="10.5" r="9.5" fill="none"/>
    </g>
    <g id="Add_User" data-name="Add User" transform="translate(27.729 24.457)">
      <path id="Add_User-2" data-name="Add User" d="M1.04,8.293a1.04,1.04,0,0,1,0-2.081H3.1V1.04a1.04,1.04,0,1,1,2.081,0V6.992c0,.01,0,.02,0,.03A1.041,1.041,0,0,1,4.162,8.293Z" transform="translate(5.864) rotate(45)" fill="#fff"/>
    </g>
  </g>
</svg>
