<svg xmlns="http://www.w3.org/2000/svg" xmlns:xlink="http://www.w3.org/1999/xlink" width="99" height="99" viewBox="0 0 99 99">
  <defs>
    <filter id="Your_image_here" x="0" y="0" width="99" height="99" filterUnits="userSpaceOnUse">
      <feOffset dx="1.736" dy="9.848" input="SourceAlpha"/>
      <feGaussianBlur stdDeviation="9" result="blur"/>
      <feFlood flood-color="#695f97" flood-opacity="0.29"/>
      <feComposite operator="in" in2="blur"/>
      <feComposite in="SourceGraphic"/>
    </filter>
    <filter id="Your_image_here-2" x="0" y="0" width="99" height="99" filterUnits="userSpaceOnUse">
      <feOffset dx="1.736" dy="9.848" input="SourceAlpha"/>
      <feGaussianBlur stdDeviation="9" result="blur-2"/>
      <feFlood flood-color="#695f97" flood-opacity="0.29"/>
      <feComposite operator="in" in2="blur-2"/>
      <feComposite in="SourceGraphic"/>
    </filter>
    <clipPath id="clip-path">
      <g transform="matrix(1, 0, 0, 1, 0, 0)" filter="url(#Your_image_here)">
        <rect id="Your_image_here-3" data-name="Your image here" width="45" height="45" rx="19" transform="translate(0 -0.06)" fill="#6149cd"/>
      </g>
    </clipPath>
  </defs>
  <g id="myprofile" transform="translate(-1804.736 -23.848)">
    <g id="account" transform="translate(1830 41.063)">
      <g id="image">
        <g id="Your_image_here-4" data-name="Your image here">
          <g transform="matrix(1, 0, 0, 1, -25.26, -17.22)" filter="url(#Your_image_here-2)">
            <rect id="Your_image_here-5" data-name="Your image here" width="45" height="45" rx="19" transform="translate(25.26 17.15)" fill="#6149cd"/>
          </g>
        </g>
      </g>
    </g>
    <g id="Profile" transform="translate(1845 54)">
      <path id="Profile-2" data-name="Profile" d="M0,16.575c0-2.722,3.686-3.4,8-3.4,4.339,0,8,.7,8,3.424S12.315,20,8,20C3.662,20,0,19.3,0,16.575ZM2.706,5.291A5.294,5.294,0,1,1,8,10.583,5.274,5.274,0,0,1,2.706,5.291Z" transform="translate(0 0)" fill="#fff"/>
    </g>
  </g>
</svg>
