<svg xmlns="http://www.w3.org/2000/svg" width="16.977" height="19.594" viewBox="0 0 16.977 19.594">
  <path id="notifications" d="M1719.692,71.954a.731.731,0,0,1,.1-1.043l0,0a.778.778,0,0,1,1.076.1,2.042,2.042,0,0,0,.417.4,2.009,2.009,0,0,0,2.773-.4h.009a.779.779,0,0,1,1.077-.1.73.73,0,0,1,.105,1.041l-.005.006a3.531,3.531,0,0,1-4.884.658,3.463,3.463,0,0,1-.671-.658Zm-1.639-2.724a4.861,4.861,0,0,1-3.066-1.507,3.949,3.949,0,0,1-.967-2.684v-.119a4.07,4.07,0,0,1,.727-2.057l.072-.089a3.731,3.731,0,0,0,.886-1.724V59.274a.769.769,0,0,1,.994-.416.753.753,0,0,1,.468.57V61.2a.41.41,0,0,1,0,.1,5.119,5.119,0,0,1-1.223,2.4,2.446,2.446,0,0,0-.389,1.225v.19a2.492,2.492,0,0,0,.584,1.68,3.342,3.342,0,0,0,2.073.966,40.766,40.766,0,0,0,8.576,0,3.348,3.348,0,0,0,2.117-1.009,2.462,2.462,0,0,0,.558-1.629v-.2a2.539,2.539,0,0,0-.38-1.233,5.131,5.131,0,0,1-1.3-2.4.547.547,0,0,1,0-.1V59.412c-.257-2.6-2.924-4.213-5.245-4.213a5.839,5.839,0,0,0-2.817.715.781.781,0,0,1-.776,0,.731.731,0,0,1-.279-1.007.746.746,0,0,1,.316-.293,7.337,7.337,0,0,1,3.49-.905c3.065,0,6.5,2.12,6.89,5.526v1.776a3.648,3.648,0,0,0,.886,1.724.754.754,0,0,1,.071.1,3.921,3.921,0,0,1,.676,2.006l-.027.18a4.007,4.007,0,0,1-.94,2.7,4.914,4.914,0,0,1-3.118,1.509,41.505,41.505,0,0,1-8.858,0Z" transform="translate(-1714.02 -53.714)" fill="#7a86a1"/>
</svg>
