<svg xmlns="http://www.w3.org/2000/svg" width="19" height="20" viewBox="0 0 19 20">
  <g id="Setting" transform="translate(0)">
    <path id="Setting-2" data-name="Setting" d="M6.175,17.365a.991.991,0,0,0-.143-.527,1.112,1.112,0,0,0-1.493-.4,2.736,2.736,0,0,1-3.6-.949L.329,14.449A2.6,2.6,0,0,1,1.3,10.935a1.1,1.1,0,0,0,.4-.386,1.043,1.043,0,0,0,.179-.85A1.07,1.07,0,0,0,1.345,9,2.6,2.6,0,0,1,.374,5.49a.785.785,0,0,1,.5-.327.8.8,0,0,1,.589.115A.745.745,0,0,1,1.687,6.3a1.05,1.05,0,0,0,.4,1.449,2.586,2.586,0,0,1-.036,4.47,1.051,1.051,0,0,0-.405,1.45l.621,1.045a1.067,1.067,0,0,0,.662.5,1.091,1.091,0,0,0,.831-.118,2.648,2.648,0,0,1,1.322-.342,2.667,2.667,0,0,1,2.7,2.635,1.086,1.086,0,0,0,1.1,1.063l-.009.017a.787.787,0,0,1,.678.383.75.75,0,0,1,0,.764A.789.789,0,0,1,8.874,20,2.668,2.668,0,0,1,6.175,17.365Zm5.028.079a2.628,2.628,0,0,1,1.346-2.227,2.758,2.758,0,0,1,2.648-.031,1.093,1.093,0,0,0,.827.114,1.124,1.124,0,0,0,.666-.5l.611-1.046a1.033,1.033,0,0,0,.113-.806,1.059,1.059,0,0,0-.509-.644,2.571,2.571,0,0,1-.98-1.045A2.6,2.6,0,0,1,16.9,7.747a.811.811,0,0,1,1.062.29.754.754,0,0,1-.27,1.045,1.1,1.1,0,0,0-.4.387,1.038,1.038,0,0,0-.113.809,1.066,1.066,0,0,0,.509.649,2.6,2.6,0,0,1,.935,3.6l-.611,1.045a2.735,2.735,0,0,1-3.6.949,1.1,1.1,0,0,0-1.1-.01,1.05,1.05,0,0,0-.54.932.794.794,0,0,1-1.574,0Zm-4.1-5.1a3.237,3.237,0,0,1-.737-3.6A3.375,3.375,0,0,1,9.494,6.7H9.5a3.392,3.392,0,0,1,2.38.961A3.235,3.235,0,0,1,12.876,10a3.291,3.291,0,0,1-2.082,3.057,3.442,3.442,0,0,1-3.689-.71ZM7.7,10a1.8,1.8,0,1,0,1.8-1.757A1.78,1.78,0,0,0,7.7,10Zm9-4.726A1.112,1.112,0,0,0,15.2,4.892a2.754,2.754,0,0,1-2.644-.029A2.624,2.624,0,0,1,11.2,2.644a1.05,1.05,0,0,0-.306-.775,1.1,1.1,0,0,0-.782-.323H8.883a1.108,1.108,0,0,0-.786.323,1.056,1.056,0,0,0-.312.775,2.581,2.581,0,0,1-1.343,2.23,2.709,2.709,0,0,1-2.651-.017l-.036-.035A.755.755,0,0,1,3.5,3.768a.8.8,0,0,1,1.08-.246,1.151,1.151,0,0,0,.539.148,1.109,1.109,0,0,0,.789-.282,1.064,1.064,0,0,0,.353-.745A2.665,2.665,0,0,1,8.883,0h1.232a2.667,2.667,0,0,1,2.7,2.635.989.989,0,0,0,.144.526,1.084,1.084,0,0,0,.662.5,1.114,1.114,0,0,0,.831-.106,2.735,2.735,0,0,1,3.6.949.772.772,0,0,1-.288,1.045.8.8,0,0,1-.392.1A.794.794,0,0,1,16.691,5.279Z" fill="#7a86a1"/>
  </g>
</svg>
