<svg id="support" xmlns="http://www.w3.org/2000/svg" xmlns:xlink="http://www.w3.org/1999/xlink" width="18.285" height="20.601" viewBox="0 0 18.285 20.601">
  <defs>
    <clipPath id="clip-path">
      <rect id="Rectangle_89" data-name="Rectangle 89" width="18.285" height="20.601" fill="#7a86a1"/>
    </clipPath>
  </defs>
  <g id="Group_407" data-name="Group 407" clip-path="url(#clip-path)">
    <path id="Path_175" data-name="Path 175" d="M49.829,164A1.831,1.831,0,0,0,48,165.829v4.957a1.829,1.829,0,1,0,3.657,0v-4.957A1.831,1.831,0,0,0,49.829,164" transform="translate(-45.562 -155.67)" fill="#7a86a1"/>
    <path id="Path_176" data-name="Path 176" d="M1.219,194.3v-.005a.3.3,0,0,0-.47-.242A1.811,1.811,0,0,0,0,195.517v2.519A1.811,1.811,0,0,0,.749,199.5a.3.3,0,0,0,.47-.242V194.3Z" transform="translate(0 -184.14)" fill="#7a86a1"/>
    <path id="Path_177" data-name="Path 177" d="M150.7,164a1.831,1.831,0,0,0-1.829,1.829v4.957a1.831,1.831,0,0,0,1.829,1.829,1.8,1.8,0,0,0,.524-.086,1.825,1.825,0,0,1-1.743,1.3h-1.941a1.829,1.829,0,1,0,0,1.219h1.941A3.051,3.051,0,0,0,152.533,172v-6.176A1.831,1.831,0,0,0,150.7,164" transform="translate(-136.686 -155.67)" fill="#7a86a1"/>
    <path id="Path_178" data-name="Path 178" d="M336.47,194.051a.3.3,0,0,0-.47.242v4.968a.3.3,0,0,0,.47.242,1.811,1.811,0,0,0,.749-1.466v-2.519a1.811,1.811,0,0,0-.749-1.466" transform="translate(-318.934 -184.139)" fill="#7a86a1"/>
    <path id="Path_179" data-name="Path 179" d="M9.143,0A9.153,9.153,0,0,0,0,9.143v.016L.011,9.15A4.235,4.235,0,0,0,1.54,6.938a7.913,7.913,0,0,1,15.205,0A4.236,4.236,0,0,0,18.274,9.15l.011.008V9.143A9.153,9.153,0,0,0,9.143,0" fill="#7a86a1"/>
  </g>
</svg>
