<svg xmlns="http://www.w3.org/2000/svg" width="14.867" height="14.866" viewBox="0 0 14.867 14.866">
  <path id="auto-report" d="M17220.932,13021.865a1.106,1.106,0,0,1-.783-.324l-1.244-1.245a.459.459,0,0,0-.324-.135h-1.764a1.111,1.111,0,0,1-1.107-1.111v-1.764a.458.458,0,0,0-.139-.32l-1.246-1.249a1.1,1.1,0,0,1-.324-.752v-.061a1.1,1.1,0,0,1,.324-.753l1.246-1.249a.468.468,0,0,0,.139-.324v-1.765a1.109,1.109,0,0,1,1.107-1.106h1.764a.462.462,0,0,0,.324-.134l1.244-1.25a1.106,1.106,0,0,1,.783-.324,1.118,1.118,0,0,1,.787.324l1.244,1.25a.462.462,0,0,0,.324.134h1.766a1.107,1.107,0,0,1,1.105,1.106v1.765a.455.455,0,0,0,.135.324l1.25,1.249a1.108,1.108,0,0,1,0,1.565l-1.25,1.249a.45.45,0,0,0-.135.32v1.764a1.109,1.109,0,0,1-1.105,1.111h-1.766a.459.459,0,0,0-.324.135l-1.244,1.245A1.125,1.125,0,0,1,17220.932,13021.865Zm-.482-9.468a.318.318,0,0,0-.059.007,2.557,2.557,0,0,0-2,2.651,2.594,2.594,0,0,0,2.416,2.416c.053,0,.1,0,.146,0a2.56,2.56,0,0,0,2.51-2,.255.255,0,0,0-.053-.214.251.251,0,0,0-.2-.1h-2.512v-2.508A.256.256,0,0,0,17220.449,13012.4Zm.984-.011h0a.224.224,0,0,0-.217.221v1.824a.219.219,0,0,0,.217.221h1.824a.215.215,0,0,0,.168-.078.229.229,0,0,0,.049-.19,2.57,2.57,0,0,0-1.994-1.993h-.016a.13.13,0,0,0-.027,0Z" transform="translate(-17213.5 -13007.499)" fill="#bdc3d0" stroke="rgba(0,0,0,0)" stroke-width="1"/>
</svg>
