<svg xmlns="http://www.w3.org/2000/svg" width="14.865" height="13.349" viewBox="0 0 14.865 13.349">
  <g id="con-report-s" transform="translate(0.5 0.498)">
    <g id="Group_244" data-name="Group 244" transform="translate(0 0)">
      <path id="Exclusion_2" data-name="Exclusion 2" d="M17139.729,12386.129a1.113,1.113,0,0,1-1.111-1.109v-8.669a2.576,2.576,0,0,1,2.574-2.57h8.717a2.576,2.576,0,0,1,2.574,2.57v5.949a2.575,2.575,0,0,1-2.574,2.569h-7.637a1.667,1.667,0,0,0-1.012.349l-.852.672A1.093,1.093,0,0,1,17139.729,12386.129Zm5.053-8.206a.482.482,0,0,0-.348.146l-2.223,2.221a.763.763,0,0,0-.223.517v.052a.763.763,0,0,0,.223.517.756.756,0,0,0,.525.229h.043a.744.744,0,0,0,.521-.225l1.133-1.132a.493.493,0,0,1,.7,0l.844.844a.49.49,0,0,0,.7,0l2.217-2.217a.776.776,0,0,0,0-1.094.778.778,0,0,0-1.09,0l-1.127,1.133a.493.493,0,0,1-.7,0l-.844-.844A.493.493,0,0,0,17144.781,12377.923Z" transform="translate(-17138.617 -12373.778)" fill="#fff" stroke="rgba(0,0,0,0)" stroke-width="1"/>
    </g>
  </g>
</svg>
