<svg id="contacts-s" xmlns="http://www.w3.org/2000/svg" width="24.757" height="18.005" viewBox="0 0 24.757 18.005">
  <path id="_3_Friends" data-name="3 Friends" d="M5.163,14.945c0-2.45,3.275-3.084,7.158-3.084,3.861,0,7.157.612,7.157,3.062s-3.275,3.083-7.157,3.083C8.46,18.005,5.163,17.393,5.163,14.945Zm16.315.454a5.011,5.011,0,0,0-2.988-4.931.05.05,0,0,1-.032-.053.042.042,0,0,1,.036-.029,17.431,17.431,0,0,1,3.65.32,3.106,3.106,0,0,1,2.4,1.467,2.169,2.169,0,0,1,0,1.88c-.519,1.123-2.188,1.485-2.837,1.578l-.03,0A.206.206,0,0,1,21.478,15.4Zm-18.427.231C2.4,15.536.733,15.176.216,14.052a2.153,2.153,0,0,1,0-1.879,3.1,3.1,0,0,1,2.4-1.469,17.6,17.6,0,0,1,3.65-.318.041.041,0,0,1,.035.028.052.052,0,0,1-.031.054A5.007,5.007,0,0,0,3.278,15.4a.2.2,0,0,1-.2.234ZM7.585,4.763a4.737,4.737,0,1,1,9.474,0,4.737,4.737,0,1,1-9.474,0ZM18.638,8.824a3.82,3.82,0,0,1-.544-.053.179.179,0,0,1-.12-.275,6.573,6.573,0,0,0-.1-7.44.12.12,0,0,1-.018-.125.147.147,0,0,1,.093-.056,3.947,3.947,0,0,1,.8-.082,4.024,4.024,0,0,1,3.854,5.08,3.95,3.95,0,0,1-3.859,2.952ZM2.151,5.874A4.024,4.024,0,0,1,6,.794a3.972,3.972,0,0,1,.8.082A.151.151,0,0,1,6.9.932a.118.118,0,0,1-.018.124A6.572,6.572,0,0,0,6.783,8.5a.179.179,0,0,1-.121.275,3.692,3.692,0,0,1-.544.053H6.01A3.952,3.952,0,0,1,2.151,5.874Z" fill="#fff"/>
</svg>
