<svg xmlns="http://www.w3.org/2000/svg" width="18.352" height="17.386" viewBox="0 0 18.352 17.386">
  <path id="Flowbuilder-s" d="M17.454,3a2.9,2.9,0,0,1,0,5.8h-2.9a2.9,2.9,0,0,1-2.733-1.932H10.693A1.937,1.937,0,0,0,8.761,8.8v.165a2.9,2.9,0,0,1,0,5.465v.165a1.937,1.937,0,0,0,1.932,1.932h1.13a2.9,2.9,0,0,1,2.734-1.932h2.9a2.9,2.9,0,0,1,0,5.8h-2.9a2.9,2.9,0,0,1-2.733-1.932H10.693A3.863,3.863,0,0,1,6.83,14.591H4.9a2.9,2.9,0,0,1,0-5.8H6.83a3.863,3.863,0,0,1,3.864-3.864h1.13A2.9,2.9,0,0,1,14.557,3Z" transform="translate(-2 -3)" fill="#fff"/>
</svg>
