<svg id="funnel" xmlns="http://www.w3.org/2000/svg" width="20.553" height="20.553" viewBox="0 0 20.553 20.553">
  <path id="Filter_2" data-name="Filter 2" d="M7.281,20.423a.825.825,0,0,1-.365-.688V14.787a.573.573,0,0,1,.566-.581l4.989.016a.574.574,0,0,1,.563.581v2.806a.821.821,0,0,1-.466.745L8.039,20.48a.786.786,0,0,1-.33.073A.775.775,0,0,1,7.281,20.423Zm5.5-8.047-5.6-.017a.608.608,0,0,1-.449-.2L.59,5.4A2.3,2.3,0,0,1,0,3.861V2.254A2.221,2.221,0,0,1,2.187,0H18.366a2.22,2.22,0,0,1,2.186,2.253V3.827A2.287,2.287,0,0,1,19.9,5.434L13.213,12.2a.6.6,0,0,1-.427.181Z" fill="#bdc3d0"/>
</svg>
