<svg xmlns="http://www.w3.org/2000/svg" xmlns:xlink="http://www.w3.org/1999/xlink" width="19.315" height="17.205" viewBox="0 0 19.315 17.205">
  <defs>
    <clipPath id="clip-path">
      <rect id="Rectangle_76" data-name="Rectangle 76" width="19.315" height="17.205" fill="#bdc3d0"/>
    </clipPath>
  </defs>
  <g id="Smartreplies" transform="translate(0 0)">
    <g id="Group_239" data-name="Group 239" transform="translate(0 0)" clip-path="url(#clip-path)">
      <path id="Path_163" data-name="Path 163" d="M15.731,0a3.583,3.583,0,0,1,3.584,3.584v8.284a3.583,3.583,0,0,1-3.584,3.584H5.089a2.272,2.272,0,0,0-1.406.487l-1.189.934A1.542,1.542,0,0,1,0,15.66V3.584A3.583,3.583,0,0,1,3.584,0ZM13.662,3.863h-.284a.824.824,0,0,0-.824.824v6.078a.824.824,0,0,0,.824.824h.284a.824.824,0,0,0,.824-.824V4.687a.824.824,0,0,0-.824-.824m-5.794.966H7.584a.824.824,0,0,0-.824.824v.284a.824.824,0,0,1-.824.823H5.652a.823.823,0,0,0-.823.823v.285a.824.824,0,0,0,.824.824h.284a.824.824,0,0,1,.824.824V9.8a.824.824,0,0,0,.824.824h.284A.824.824,0,0,0,8.692,9.8V9.515a.824.824,0,0,1,.824-.824H9.8a.824.824,0,0,0,.824-.824V7.583A.824.824,0,0,0,9.8,6.76H9.515a.823.823,0,0,1-.823-.823V5.652a.824.824,0,0,0-.824-.824" transform="translate(0 0)" fill="#bdc3d0"/>
    </g>
  </g>
</svg>
